#N canvas 582 25 1440 852 10;
#X declare -lib iemlib;
#X obj 34 118 osc~ 200;
#X obj -7 518 cnv 15 552 21 empty \$0-pddp.cnv.footer empty 20 12 0
14 -228856 -66577 0;
#X obj -6 4 cnv 15 552 40 empty empty controllable_output~ 3 12 0 18
-204280 -1 0;
#X obj -6 315 cnv 3 550 3 empty \$0-pddp.cnv.inlets inlets 8 12 0 13
-228856 -1 0;
#N canvas 50 246 494 363 META 0;
#X text 12 178 AUTHOR Pedro Lopes;
#X text 12 158 LIBRARY plopesresearch;
#X text 12 25 LICENSE GPL;
#X text 12 198 WEBSITE http://plopes.org;
#X text 12 218 RELEASE_DATE 2016;
#X text 12 6 KEYWORDS controllable ouput dac slider;
#X text 12 45 DESCRIPTION a channel controller/slider with on/off and
volume inlet;
#X text 12 75 INLET_0 audio;
#X text 13 96 INLET_1 audio;
#X text 12 115 INLET_2 float;
#X text 13 137 INLET_3 float;
#X restore 496 520 pd META;
#N canvas 0 22 1440 852 Related_objects 0;
#X obj 1 1 cnv 15 425 20 empty empty empty 3 12 0 14 -204280 -1 0;
#X obj 13 45 output~;
#X obj 16 120 dac~;
#X text 14 163 and of couse all the tricks like:;
#X obj 230 162 pddp/dsp;
#X text 8 2 [controllable_output~] Related Objects;
#X restore 95 520 pd Related_objects;
#X obj -3 520 pddp/pddplink all_about_help_patches.pd -text Usage Guide
;
#X obj 70 354 cnv 17 3 17 empty \$0-pddp.cnv.let.1 2 5 9 0 16 -228856
-162280 0;
#X obj 70 333 cnv 17 3 17 empty \$0-pddp.cnv.let.0 1 5 9 0 16 -228856
-162280 0;
#X obj 153 129 tgl 15 0 empty empty empty 17 7 0 10 -262144 -1 -1 0
1;
#X text 176 130 controls overall DSP;
#X obj 110 92 hsl 128 15 0 1 0 0 empty empty empty -2 -8 0 10 -262144
-1 -1 0 1;
#X text 88 90 0;
#X text 242 92 1;
#X text 111 73 controls this track's volume;
#X text 93 333 audio;
#X text 163 334 - left channel;
#X text 28 211 a remix of [output~] which is a a GUI replacement for
[dac~] with controls for "compute audio" \, volume \, and a mute button.
This one offers inputs for volume and DSP on/off.;
#X text 5 27 a channel controller/slider with on/off and volume inlet
;
#X text 95 355 audio;
#X text 164 356 - right channel;
#X obj 70 402 cnv 17 3 17 empty \$0-pddp.cnv.let.1 4 5 9 0 16 -228856
-162280 0;
#X obj 70 381 cnv 17 3 17 empty \$0-pddp.cnv.let.0 3 5 9 0 16 -228856
-162280 0;
#X text 163 382 - 0-1 value to control this channel's volume;
#X text 93 382 float;
#X text 95 403 float;
#X obj 32 161 controllable_output~;
#X obj -6 445 cnv 3 550 3 empty \$0-pddp.cnv.inlets arguments 8 12
0 13 -228856 -1 0;
#X obj 70 484 cnv 17 3 17 empty \$0-pddp.cnv.let.1 2 5 9 0 16 -228856
-162280 0;
#X obj 70 463 cnv 17 3 17 empty \$0-pddp.cnv.let.0 1 5 9 0 16 -228856
-162280 0;
#X text 93 463 float;
#X text 163 464 - 0-1 value to control this channel's volume;
#X text 164 404 - 0 or 1 to toggle this track on/off;
#X text 164 486 - 0 or 1 to toggle this track on/off;
#X text 95 485 float;
#X connect 0 0 26 0;
#X connect 0 0 26 1;
#X connect 9 0 26 3;
#X connect 11 0 26 2;
