#N canvas 108 44 1440 852 10;
#X declare -lib iemlib;
#X obj 13 106 hsl 42 23 0.01 1 1 0 \$0-v \$0-v volume 7 13 1 9 -204800
-13381 -1 3483 0;
#X obj 87 106 tgl 22 0 THIS_IS_HERE_TO_GET_RID_OF_THE_OUTLET \$0-dsp-toggle
dsp 2 9 1 9 -225271 -195568 -33289 1 1;
#N canvas 366 514 482 356 dsp 0;
#X obj 11 7 inlet;
#X obj 92 226 select 0 1;
#X msg 125 248 6;
#X obj 92 57 route dsp;
#X obj 92 36 receive pd;
#X obj 206 138 loadbang;
#X msg 11 220 dsp \$1;
#X obj 11 245 send pd;
#X msg 206 278 set \$1;
#X obj 206 174 value GLOBAL_PDDP_DSP;
#X msg 109 278 color \$1 20 12;
#X obj 180 309 send \$0-dsp-toggle;
#X obj 92 115 change;
#X msg 92 247 0;
#X connect 0 0 6 0;
#X connect 0 0 12 0;
#X connect 1 0 13 0;
#X connect 1 1 2 0;
#X connect 2 0 10 0;
#X connect 3 0 12 0;
#X connect 4 0 3 0;
#X connect 5 0 9 0;
#X connect 6 0 7 0;
#X connect 8 0 11 0;
#X connect 9 0 8 0;
#X connect 9 0 1 0;
#X connect 10 0 11 0;
#X connect 12 0 8 0;
#X connect 12 0 1 0;
#X connect 12 0 9 0;
#X connect 13 0 10 0;
#X restore 82 158 pd dsp logic;
#X obj 201 32 inlet~;
#X obj 86 283 line~;
#X obj 186 343 *~;
#X obj 206 373 dac~;
#X obj 263 32 inlet~;
#X obj 248 342 *~;
#X obj 201 83 hip~ 3;
#X obj 263 83 hip~ 3;
#X obj 12 298 send pd;
#X msg 12 277 dsp 1;
#X obj 86 262 pack 0 50;
#X text 153 261 <-- make a ramp to avoid clicks or zipper noise;
#X msg 86 227 0;
#X obj 86 204 moses 0.011;
#X text 307 84 filter out DC;
#X obj 331 31 inlet;
#X text 329 11 vol in;
#X obj 388 32 inlet;
#X text 384 12 toggle in;
#X obj 88 57 moses 0.01;
#X msg 28 60 0.01;
#X obj 58 106 tgl 22 0 empty empty track 2 9 1 9 -204800 -195568 -33289
1 1;
#X obj 137 107 pp set;
#X msg 11 130 0.0844947;
#X obj 131 312 *~;
#N canvas 0 22 1440 852 imports 0;
#X obj 60 69 import iemlib;
#X text 156 69 for pp aka prepend;
#X restore 14 335 pd imports;
#X text 201 12 audio in L/R;
#X obj 466 60 f \$1;
#X text 467 12 arguments handler:;
#X text 464 38 1 initial volume;
#X text 578 39 2 channel on/off;
#X obj 581 59 f \$2;
#X obj 465 96 print ARG1;
#X obj 583 111 print ARG2;
#X obj 613 6 loadbang;
#X connect 0 0 12 0;
#X connect 0 0 16 0;
#X connect 0 0 25 0;
#X connect 1 0 2 0;
#X connect 3 0 9 0;
#X connect 4 0 27 0;
#X connect 5 0 6 0;
#X connect 7 0 10 0;
#X connect 8 0 6 1;
#X connect 9 0 5 1;
#X connect 10 0 8 1;
#X connect 12 0 11 0;
#X connect 13 0 4 0;
#X connect 15 0 13 0;
#X connect 16 0 15 0;
#X connect 16 1 13 0;
#X connect 18 0 22 0;
#X connect 20 0 24 0;
#X connect 20 0 27 1;
#X connect 22 0 23 0;
#X connect 22 1 0 0;
#X connect 22 1 16 0;
#X connect 22 1 12 0;
#X connect 23 0 0 0;
#X connect 23 0 12 0;
#X connect 24 0 27 1;
#X connect 25 0 26 0;
#X connect 27 0 5 0;
#X connect 27 0 8 1;
#X connect 30 0 35 0;
#X connect 30 0 0 0;
#X connect 30 0 12 0;
#X connect 30 0 16 0;
#X connect 34 0 36 0;
#X connect 34 0 24 0;
#X connect 34 0 27 1;
#X connect 37 0 30 0;
#X connect 37 0 34 0;
#X coords 0 0 1 1 100 39 1 10 90;
