#N canvas 184 22 1440 852 10;
#X declare -lib jasch_lib;
#X declare -lib iemlib;
#X declare -lib iemlib;
#X declare -lib iemlib;
#X obj -17 425 cnv 15 552 21 empty \$0-pddp.cnv.footer empty 20 12
0 14 -228856 -66577 0;
#X obj -17 9 cnv 15 552 40 empty empty for_each_in_list 3 12 0 18 -204280
-1 0;
#X obj -16 382 cnv 3 550 3 empty \$0-pddp.cnv.inlets inlets 8 12 0
13 -228856 -1 0;
#N canvas 50 246 494 363 META 0;
#X text 12 128 AUTHOR Pedro Lopes;
#X text 12 108 LIBRARY plopesresearch;
#X text 12 35 LICENSE GPL;
#X text 12 148 WEBSITE http://plopes.org;
#X text 12 168 RELEASE_DATE 2016;
#X text 12 7 KEYWORDS outputs each element of a list \, one by one
(can be a string);
#X text 12 55 DESCRIPTION outputs each element of a list \, one by
one (can be a string);
#X text 11 87 INLET_0 symbol list;
#X restore 483 426 pd META;
#N canvas 0 22 1440 852 Related_objects 0;
#X obj 1 1 cnv 15 425 20 empty empty empty 3 12 0 14 -204280 -1 0;
#X text 8 2 [for_each_in_list] Related Objects;
#X obj 10 33 unpack;
#X obj 62 62 import jasch_lib;
#X obj 10 66 strtok;
#X obj 104 105 import iemlib;
#X obj 10 105 splitfilename;
#X obj 9 135 split3;
#X text 7 164 I feel like there are many others \, just update this
list!;
#X restore 85 427 pd Related_objects;
#X obj -13 427 pddp/pddplink all_about_help_patches.pd -text Usage
Guide;
#X obj 60 390 cnv 17 3 17 empty \$0-pddp.cnv.let.0 1 5 9 0 16 -228856
-162280 0;
#X text 2 208 By default the object is ready to use.;
#X text 83 390 symbol;
#X text -6 32 outputs each element of a list \, one by one (can be
a string);
#X text -1 75;
#X text -1 62 The [for_each_in_list] object that prints out strings
(symbols) one by one. Note that the list can start with a string.;
#X text -1 117 To use it just create an object by writing [for_each_in_list].
You get:;
#X obj 1 161 for_each_in_list;
#X text 2 222 Just send lists to the left (hot) inlet. The output will
be in the outlet.;
#X obj 2 302 for_each_in_list;
#X msg 2 270 this is my list;
#X obj 2 332 print ELEMENT:;
#X text 99 331 note that this prints each element as a symbol.;
#X text 153 391 - list to be parsed element by element;
#X connect 15 0 17 0;
#X connect 16 0 15 0;
