#N canvas 480 22 1440 852 10;
#X declare -lib tof;
#X declare -lib iemguts;
#X declare -lib iemlib;
#X declare -lib jasch_lib;
#X declare -lib iemlib;
#X obj -77 30 key;
#X msg -129 56 clear;
#X obj -304 119 tof/pmenu 1 1 black white red;
#X obj -240 58 bng 15 250 50 0 empty empty empty 17 7 0 10 -262144
-1 -1;
#X text -218 56 Pop the menu;
#X obj -77 56 sel 78;
#X obj -304 36 loadbang;
#X obj -14 38 import tof;
#X obj -15 67 import iemguts;
#X text 60 37 imports pmenu;
#X text 82 66 imports receivecanvas;
#X obj -16 126 route motion;
#X obj -15 183 unpack f f f;
#X obj -15 210 s \$0-mouse-x;
#X obj 19 232 s \$0-mouse-y;
#X obj -203 149 r \$0-mouse-x;
#X obj -158 169 r \$0-mouse-y;
#X symbolatom -134 214 10 0 0 0 - - -;
#X text -118 108 menu items;
#X obj -143 31 r \$0-main-menu;
#X obj -219 214 pack s f f;
#X msg -219 239 obj \$2 \$3 \$1;
#X obj -199 186 + 10;
#X obj -219 274 sendcanvas 1;
#X obj -16 98 receivecanvas 1;
#X obj -240 33 inlet;
#X msg -304 89 add \$1;
#X obj 228 145 import iemlib;
#X text 317 147 receive arguments;
#X obj -78 537 dollarg;
#X obj -38 591 print NUMBER;
#X obj -73 461 loadbang;
#X msg -113 605 nha nhe nhi;
#X obj -131 478 bng 15 250 50 0 empty empty empty 17 7 0 10 -262144
-1 -1;
#X text 319 171 also for prepend;
#X obj -139 569 iem_prepend set;
#X obj 62 497 import jasch_lib;
#X text 165 497 string stuff \, tok \, len;
#X obj -189 643 list length;
#X floatatom -190 685 5 0 0 0 - - -;
#X obj -58 857 print;
#X text -2 856 First outlet is the output.;
#X obj -148 685 for_each_in_list;
#X obj -150 716 print LIST HAS ME:;
#X connect 0 0 5 0;
#X connect 1 0 2 0;
#X connect 2 1 17 0;
#X connect 3 0 2 0;
#X connect 5 0 2 0;
#X connect 11 0 12 0;
#X connect 12 0 13 0;
#X connect 12 1 14 0;
#X connect 15 0 22 0;
#X connect 16 0 20 2;
#X connect 17 0 20 0;
#X connect 19 0 2 0;
#X connect 20 0 21 0;
#X connect 21 0 23 0;
#X connect 22 0 20 1;
#X connect 24 0 11 0;
#X connect 25 0 3 0;
#X connect 26 0 2 0;
#X connect 29 0 35 0;
#X connect 29 1 30 0;
#X connect 31 0 29 0;
#X connect 32 0 42 0;
#X connect 33 0 29 0;
#X connect 35 0 32 0;
#X connect 35 0 38 0;
#X connect 38 0 39 0;
#X connect 42 0 43 0;
