#N canvas 0 22 1440 852 10;
#X declare -lib iemguts;
#X declare -lib sfruit;
#X declare -lib cyclone;
#X declare -lib jasch_lib;
#X obj 209 863 r \$0.y-size-s;
#X obj 180 843 r \$0.x-size-s;
#X obj 430 828 nbx 3 14 0 1e+37 0 0 \$0.x-off-s \$0.x-off-r x-offs
40 7 0 10 -262144 -1 -1 0 256;
#X obj 430 842 nbx 3 14 0 1e+37 0 0 \$0.y-off-s \$0.y-off-r y-offs
40 7 0 10 -262144 -1 -1 0 256;
#X obj 238 883 r \$0.x-off-s;
#X obj 267 903 r \$0.y-off-s;
#X msg 180 950 donecanvasdialog 1 -1 2 0 -1 1 1 \$1 \$2 \$3 \$4;
#X obj 469 324 nbx 3 14 0 1e+37 0 0 \$0.x-size-s \$0.x-size-r x-size
40 7 0 10 -262144 -1 -1 114 256;
#X obj 429 882 nbx 3 14 0 1e+37 0 0 \$0.y-size-s \$0.y-size-r y-size
40 7 0 10 -262144 -1 -1 25 256;
#X obj 178 982 sendcanvas 1;
#X obj 180 927 hotpack f f f f;
#X obj 282 984 sendcanvas;
#X text 428 863 no Y manipulation for now;
#N canvas 760 98 1440 852 imports 0;
#X obj 48 53 import iemguts;
#X obj 48 82 import sfruit;
#X text 146 51 send canvas;
#X text 149 84 hotpack;
#X restore 429 912 pd imports;
#X text 179 800 this is all based on the edit GOP-edit example by sfruit
;
#X text 178 822 send new size messages to resize;
#X text 351 984 sending to itself (no args);
#X symbolatom 20 5 0 0 0 0 - - -;
#X obj 257 251 cyclone/tosymbol;
#X obj 268 223 inlet;
#X obj 4 5 tgl 15 0 empty empty empty 17 7 0 10 -262144 -1 -1 1 1;
#X obj 261 274 spigot;
#X obj 183 393 loadbang;
#X msg 223 439 1;
#X obj 202 489 symbol \$1;
#X msg 202 516 set \$1;
#X text 181 374 this loads arguments of the patch;
#X symbolatom 202 543 10 0 0 0 - - -;
#X msg 242 606 1;
#X obj 261 629 s \$0-toggle;
#X obj 182 223 r \$0-toggle;
#X obj 183 412 t b b b;
#X text 253 438 by default we attemp setting toggle on;
#X text 275 487 next we try if user passed any ON/OFF or 1/0 arguments
to the patch;
#X obj 223 463 s \$0-toggle;
#X msg 290 606 0;
#X obj 492 223 inlet;
#N canvas 757 344 450 300 imports 0;
#X obj 44 59 import cyclone;
#X text 138 61 using tosymbol;
#X restore 499 746 pd imports;
#X text 182 172 inlet 1: string to display;
#X obj 245 396 r \$0-check-arg1;
#X obj 492 251 s \$0-check-arg1;
#X obj 261 349 s \$0-print-default-messages;
#X obj 357 746 s \$0-default-string;
#X msg 357 720 ...OFF (use toggle to activate)...;
#X msg 188 720 ...waiting for prints...;
#X obj 187 692 select 1 0;
#X obj 368 251 cyclone/tosymbol;
#X obj 368 224 r \$0-default-string;
#X obj 186 659 r \$0-print-default-messages;
#X text 182 192 inlet 2: control the toggle (on/true or off/false)
;
#X obj 202 579 select on true off false;
#X text 180 776 below is the code for resizing the GOP size dynamically
;
#X obj 530 780 loadbang;
#X msg 529 807 0;
#X msg 529 831 25;
#X obj 433 272 import jasch_lib;
#X obj 312 275 strlen;
#X floatatom 382 295 5 0 0 0 - - -;
#X obj 311 305 print LEN;
#X obj 422 322 * 6;
#X obj 382 323 + 5;
#X connect 0 0 10 1;
#X connect 1 0 10 0;
#X connect 4 0 10 2;
#X connect 5 0 10 3;
#X connect 6 0 11 0;
#X connect 10 0 6 0;
#X connect 18 0 21 0;
#X connect 18 0 56 0;
#X connect 19 0 18 0;
#X connect 20 0 21 1;
#X connect 20 0 41 0;
#X connect 21 0 17 0;
#X connect 22 0 31 0;
#X connect 23 0 34 0;
#X connect 24 0 27 0;
#X connect 27 0 50 0;
#X connect 28 0 29 0;
#X connect 30 0 20 0;
#X connect 31 1 24 0;
#X connect 31 2 23 0;
#X connect 35 0 29 0;
#X connect 36 0 40 0;
#X connect 39 0 24 0;
#X connect 43 0 42 0;
#X connect 44 0 42 0;
#X connect 45 0 44 0;
#X connect 45 1 43 0;
#X connect 46 0 17 0;
#X connect 46 0 56 0;
#X connect 47 0 46 0;
#X connect 48 0 45 0;
#X connect 50 0 28 0;
#X connect 50 1 28 0;
#X connect 50 2 35 0;
#X connect 50 3 35 0;
#X connect 52 0 53 0;
#X connect 52 0 54 0;
#X connect 53 0 2 0;
#X connect 53 0 3 0;
#X connect 54 0 8 0;
#X connect 56 0 57 0;
#X connect 56 0 58 0;
#X connect 57 0 60 0;
#X connect 59 0 7 0;
#X connect 60 0 59 0;
#X coords 0 -1 1 1 114 25 2 0 0;
