#N canvas 0 22 1440 852 10;
#X declare -lib cyclone;
#X symbolatom 120 105 0 0 0 0 - - -;
#X obj 104 57 cyclone/tosymbol;
#X obj 104 29 inlet;
#X obj 104 105 tgl 15 0 empty empty empty 17 7 0 10 -262144 -1 -1 1
1;
#X obj 108 80 spigot;
#X obj 30 199 loadbang;
#X msg 70 245 1;
#X obj 49 295 symbol \$1;
#X msg 49 322 set \$1;
#X text 28 180 this loads arguments of the patch;
#X obj 118 294 f \$1;
#X symbolatom 49 349 10 0 0 0 - - -;
#X msg 89 412 1;
#X obj 108 435 s \$0-toggle;
#X obj 29 29 r \$0-toggle;
#X obj 30 218 t b b b;
#X obj 118 323 select 1 0;
#X text 100 244 by default we attemp setting toggle on;
#X text 156 340 note: this prints error to pd window when it is a string
\, how to prevent? [still works];
#X text 150 293 next we try if user passed any ON/OFF or 1/0 arguments
to the patch;
#X obj 70 269 s \$0-toggle;
#X msg 137 412 0;
#X obj 339 29 inlet;
#N canvas 757 344 450 300 imports 0;
#X obj 44 59 import cyclone;
#X text 138 61 using tosymbol;
#X restore 346 552 pd imports;
#X text 29 -22 inlet 1: string to display;
#X obj 92 202 r \$0-check-arg1;
#X obj 339 57 s \$0-check-arg1;
#X obj 103 143 s \$0-print-default-messages;
#X obj 204 552 s \$0-default-string;
#X msg 204 526 ...OFF (use toggle to activate)...;
#X msg 35 526 ...waiting for prints...;
#X obj 34 498 select 1 0;
#X obj 215 57 cyclone/tosymbol;
#X obj 215 30 r \$0-default-string;
#X obj 33 465 r \$0-print-default-messages;
#X obj 214 324 print f;
#X text 29 -2 inlet 2: control the toggle (on/true or off/false);
#X obj 49 385 select on true off false;
#X connect 1 0 4 0;
#X connect 2 0 1 0;
#X connect 3 0 4 1;
#X connect 3 0 27 0;
#X connect 4 0 0 0;
#X connect 5 0 15 0;
#X connect 6 0 20 0;
#X connect 7 0 11 0;
#X connect 10 0 16 0;
#X connect 10 0 35 0;
#X connect 11 0 37 0;
#X connect 12 0 13 0;
#X connect 14 0 3 0;
#X connect 15 1 7 0;
#X connect 15 2 6 0;
#X connect 16 0 12 0;
#X connect 16 1 21 0;
#X connect 21 0 13 0;
#X connect 22 0 26 0;
#X connect 25 0 7 0;
#X connect 29 0 28 0;
#X connect 30 0 28 0;
#X connect 31 0 30 0;
#X connect 31 1 29 0;
#X connect 32 0 0 0;
#X connect 33 0 32 0;
#X connect 34 0 31 0;
#X connect 37 0 12 0;
#X connect 37 1 12 0;
#X connect 37 2 21 0;
#X connect 37 3 21 0;
#X coords 0 -1 1 1 300 25 2 100 100;
