#N canvas 0 22 1440 852 10;
#X declare -lib cyclone;
#X declare -lib jasch_lib;
#X obj 289 184 nbx 3 14 0 1e+37 0 0 \$0.x-size-s \$0.x-size-r x-size
40 7 0 10 -262144 -1 -1 0 256;
#X symbolatom 20 5 0 0 0 0 - - -;
#X obj 77 111 cyclone/tosymbol;
#X obj 88 83 inlet;
#X obj 4 5 tgl 15 0 empty empty empty 17 7 0 10 -262144 -1 -1 1 1;
#X obj 81 134 spigot;
#X obj 3 253 loadbang;
#X msg 43 299 1;
#X obj 22 349 symbol \$1;
#X msg 22 376 set \$1;
#X text 1 234 this loads arguments of the patch;
#X symbolatom 22 403 10 0 0 0 - - -;
#X msg 62 466 1;
#X obj 81 489 s \$0-toggle;
#X obj 2 83 r \$0-toggle;
#X obj 3 272 t b b b;
#X text 73 298 by default we attemp setting toggle on;
#X text 95 347 next we try if user passed any ON/OFF or 1/0 arguments
to the patch;
#X obj 43 323 s \$0-toggle;
#X msg 110 466 0;
#X obj 312 83 inlet;
#N canvas 757 344 450 300 imports 0;
#X obj 44 59 import cyclone;
#X text 138 61 using tosymbol;
#X restore 319 606 pd imports;
#X text 2 32 inlet 1: string to display;
#X obj 65 256 r \$0-check-arg1;
#X obj 312 111 s \$0-check-arg1;
#X obj 81 209 s \$0-print-default-messages;
#X obj 177 606 s \$0-default-string;
#X msg 177 580 ...OFF (use toggle to activate)...;
#X msg 8 580 ...waiting for prints...;
#X obj 7 552 select 1 0;
#X obj 188 111 cyclone/tosymbol;
#X obj 188 84 r \$0-default-string;
#X obj 6 519 r \$0-print-default-messages;
#X text 2 52 inlet 2: control the toggle (on/true or off/false);
#X obj 22 439 select on true off false;
#X obj 253 132 import jasch_lib;
#X obj 132 135 strlen;
#X floatatom 202 155 5 0 0 0 - - -;
#X obj 242 182 * 6;
#X obj 202 183 + 5;
#X connect 2 0 5 0;
#X connect 2 0 36 0;
#X connect 3 0 2 0;
#X connect 4 0 5 1;
#X connect 4 0 25 0;
#X connect 5 0 1 0;
#X connect 6 0 15 0;
#X connect 7 0 18 0;
#X connect 8 0 11 0;
#X connect 11 0 34 0;
#X connect 12 0 13 0;
#X connect 14 0 4 0;
#X connect 15 1 8 0;
#X connect 15 2 7 0;
#X connect 19 0 13 0;
#X connect 20 0 24 0;
#X connect 23 0 8 0;
#X connect 27 0 26 0;
#X connect 28 0 26 0;
#X connect 29 0 28 0;
#X connect 29 1 27 0;
#X connect 30 0 1 0;
#X connect 31 0 30 0;
#X connect 32 0 29 0;
#X connect 34 0 12 0;
#X connect 34 1 12 0;
#X connect 34 2 19 0;
#X connect 34 3 19 0;
#X connect 36 0 37 0;
#X connect 37 0 39 0;
#X connect 38 0 0 0;
#X connect 39 0 38 0;
#X coords 0 -1 1 1 200 25 2 0 0;
