#N canvas 0 22 450 300 10;
#X declare -lib cyclone;
#X symbolatom 120 105 46 0 0 0 - - -;
#X obj 104 57 cyclone/tosymbol;
#X obj 209 57 import cyclone;
#X obj 104 26 inlet;
#X obj 104 105 tgl 15 0 empty empty empty 17 7 0 10 -262144 -1 -1 1
1;
#X obj 108 80 spigot;
#X obj 327 31 loadbang;
#X msg 325 70 1;
#X msg 357 70 ...waiting for prints...;
#X obj 327 50 t b b;
#X connect 1 0 5 0;
#X connect 3 0 1 0;
#X connect 4 0 5 1;
#X connect 5 0 0 0;
#X connect 6 0 9 0;
#X connect 7 0 4 0;
#X connect 8 0 1 0;
#X connect 9 0 8 0;
#X connect 9 1 7 0;
#X coords 0 -1 1 1 300 25 2 100 100;
