#N canvas 361 38 1440 852 10;
#X obj 168 -27 loadbang;
#X obj 17 -49 inlet;
#X obj 140 -53 inlet;
#X obj 17 -14 bang;
#X text 13 -73 1.bang to randomize;
#X text 137 -73 2 set random range;
#X obj 139 49 random;
#X obj 260 -60 loadbang;
#X obj 270 -15 snapshot~;
#X msg 269 14 seed \$1;
#X obj 139 79 outlet;
#X obj 169 -5 \$1;
#X text 167 14 range;
#X obj 278 -40 adc~;
#X connect 0 0 11 0;
#X connect 1 0 3 0;
#X connect 2 0 6 1;
#X connect 3 0 6 0;
#X connect 6 0 10 0;
#X connect 7 0 8 0;
#X connect 8 0 9 0;
#X connect 9 0 6 1;
#X connect 11 0 6 1;
#X connect 13 0 8 0;
#X coords 0 852 1 851 350 120 0;
