#N canvas 48 38 1440 852 10;
#X obj 110 -94 loadbang;
#X obj 109 -65 symbol \$1;
#X msg 108 -38 set \$1;
#X text 176 -65 ip address;
#X text 243 -43 port;
#X text 352 -62 namespace for action;
#X msg 277 -36 set \$1;
#X obj 245 -61 \$2;
#X obj 279 -61 symbol \$3;
#X obj 17 41 inlet;
#X obj 160 37 inlet;
#X obj 17 76 bang;
#X text 13 17 1.bang to randomize;
#X text 157 17 2 set random range;
#X obj 416 54 list;
#X obj 160 74 list length;
#X obj 157 267 random;
#X connect 0 0 1 0;
#X connect 0 0 7 0;
#X connect 0 0 8 0;
#X connect 1 0 2 0;
#X connect 8 0 6 0;
#X connect 9 0 11 0;
#X connect 10 0 15 0;
#X coords 0 -1 1 1 350 120 1 100 100;
