#N canvas 15 22 450 300 10;
#X obj 48 74 bitand~;
#X obj 48 102 unsig~;
#X obj 48 30 inlet;
#X obj 97 31 inlet;
#X obj 48 130 outlet;
#X connect 0 0 1 0;
#X connect 1 0 4 0;
#X connect 2 0 0 0;
#X connect 3 0 0 1;
#X coords 0 300 1 299 120 80 0;
