#N canvas 0 22 1440 852 10;
#X declare -lib cyclone;
#X declare -lib jmmmp;
#X declare -lib flatgui;
#X declare -lib flatgui;
#N canvas 0 22 1440 852 imports 0;
#X obj 41 25 import cyclone;
#X obj 39 55 import jmmmp;
#X msg 172 62 \; pd dsp 1;
#X obj 172 28 loadbang;
#X connect 3 0 2 0;
#X restore 488 118 pd imports;
#X obj 132 481 butt 30 14;
#X obj 200 85 butt 30 14;
#X obj 307 84 butt 30 14;
#N canvas 558 324 450 300 or 0;
#X obj 45 100 unsig~;
#X obj 45 28 inlet;
#X obj 94 29 inlet;
#X obj 45 128 outlet;
#X obj 133 110 tgl 15 0 empty empty empty 17 7 0 10 -262144 -1 -1 0
1;
#X obj 184 110 tgl 15 0 empty empty empty 17 7 0 10 -262144 -1 -1 0
1;
#X text 186 126 |;
#X text 158 138 |;
#X obj 155 154 tgl 15 0 empty empty empty 17 7 0 10 -262144 -1 -1 0
1;
#X text 176 153 out;
#X text 135 126 |;
#X text 140 130 --------;
#X text 205 109 2;
#X text 119 108 1;
#X obj 45 72 bitor~;
#X text 105 153 OR;
#X connect 0 0 3 0;
#X connect 0 0 8 0;
#X connect 1 0 4 0;
#X connect 1 0 14 0;
#X connect 2 0 5 0;
#X connect 2 0 14 1;
#X connect 14 0 0 0;
#X coords 0 -1 1 1 120 80 2 100 100;
#X restore 354 395 pd or;
#X obj 351 489 butt 30 14;
#X text 174 21 Test Circuit for Logic Gates;
#N canvas 539 238 450 300 not 0;
#X obj -49 -65 inlet;
#X obj -49 35 outlet;
#X obj 136 106 tgl 15 0 empty empty empty 17 7 0 10 -262144 -1 -1 0
1;
#X text 139 124 |;
#X obj 136 140 tgl 15 0 empty empty empty 17 7 0 10 -262144 -1 -1 1
1;
#X text 157 139 out;
#X text 118 104 in;
#X text 106 139 NOT;
#X obj 49 -16 select 0 1;
#X msg -39 2 1;
#X msg -7 3 0;
#X connect 0 0 2 0;
#X connect 0 0 8 0;
#X connect 8 0 9 0;
#X connect 8 1 10 0;
#X connect 9 0 1 0;
#X connect 9 0 4 0;
#X connect 10 0 1 0;
#X connect 10 0 4 0;
#X coords 0 -1 1 1 85 60 2 100 100;
#X restore 133 396 pd not;
#X obj 204 257 mech_switch;
#X obj 526 39 cnv 20 30 30 empty empty HIGH -32 14 0 14 -260818 -33289
0;
#X obj 526 70 cnv 20 30 30 empty empty LOW -25 14 0 14 -90881 -33289
0;
#X text -110 22 Menu (pick a component);
#X text 420 20 legend of logic levels:;
#X obj -99 88 butt 30 14;
#X obj -100 262 and;
#N canvas 539 238 450 300 not 0;
#X obj -49 -65 inlet;
#X obj -49 35 outlet;
#X obj 136 106 tgl 15 0 empty empty empty 17 7 0 10 -262144 -1 -1 0
1;
#X text 139 124 |;
#X obj 136 140 tgl 15 0 empty empty empty 17 7 0 10 -262144 -1 -1 0
1;
#X text 157 139 out;
#X text 118 104 in;
#X text 106 139 NOT;
#X obj 49 -16 select 0 1;
#X msg -39 2 1;
#X msg -7 3 0;
#X connect 0 0 2 0;
#X connect 0 0 8 0;
#X connect 8 0 9 0;
#X connect 8 1 10 0;
#X connect 9 0 1 0;
#X connect 9 0 4 0;
#X connect 10 0 1 0;
#X connect 10 0 4 0;
#X coords 0 -1 1 1 85 60 2 100 100;
#X restore -99 179 pd not;
#X obj 213 150 and;
#N canvas 558 324 450 300 or 0;
#X obj 45 100 unsig~;
#X obj 45 28 inlet;
#X obj 94 29 inlet;
#X obj 45 128 outlet;
#X obj 133 110 tgl 15 0 empty empty empty 17 7 0 10 -262144 -1 -1 0
1;
#X obj 184 110 tgl 15 0 empty empty empty 17 7 0 10 -262144 -1 -1 0
1;
#X text 186 126 |;
#X text 158 138 |;
#X obj 155 154 tgl 15 0 empty empty empty 17 7 0 10 -262144 -1 -1 0
1;
#X text 176 153 out;
#X text 135 126 |;
#X text 140 130 --------;
#X text 205 109 2;
#X text 119 108 1;
#X obj 45 72 bitor~;
#X text 105 153 OR;
#X connect 0 0 3 0;
#X connect 0 0 8 0;
#X connect 1 0 4 0;
#X connect 1 0 14 0;
#X connect 2 0 5 0;
#X connect 2 0 14 1;
#X connect 14 0 0 0;
#X coords 0 -1 1 1 120 80 2 100 100;
#X restore -101 364 pd or;
#X obj -99 689 mech_switch;
#X text -102 664 SWITCHES:;
#X text -99 148 LOGIC GATES;
#X text -101 66 INPUT/OUTPUT;
#X obj -100 459 xor;
#X obj -100 568 nand;
#X obj 196 680 butt 30 14;
#X obj 243 743 nand;
#X obj 195 553 xor;
#X obj 249 845 butt 30 14;
#X text -100 803 CLOCK GENERATOR;
#X obj 382 555 clock-generator;
#X obj -96 829 clock-generator;
#X obj 383 678 butt 30 14;
#X connect 1 0 26 0;
#X connect 2 0 16 0;
#X connect 3 0 4 1;
#X connect 3 0 16 1;
#X connect 4 0 5 0;
#X connect 5 0 26 1;
#X connect 5 0 29 0;
#X connect 7 0 1 0;
#X connect 8 0 7 0;
#X connect 8 1 4 0;
#X connect 16 0 8 0;
#X connect 24 0 25 0;
#X connect 25 0 27 0;
#X connect 26 0 24 0;
#X connect 29 0 31 0;
#X connect 31 0 25 1;
