#N canvas 0 22 1440 852 10;
#X declare -lib tof;
#X declare -lib iemguts;
#X declare -lib iemguts;
#X declare -lib sfruit;
#X declare -lib cyclone;
#X declare -lib jasch_lib;
#X declare -lib iemguts;
#X declare -lib sfruit;
#X declare -lib cyclone;
#X declare -lib jasch_lib;
#X declare -lib cyclone;
#X declare -lib jmmmp;
#X declare -lib iemlib;
#X obj 9 19 bng 15 250 50 0 \$0-main-menu empty empty 17 7 0 10 -262144
-1 -1;
#X text 9 36 or using SHIFT+N;
#X obj 79 16 menu;
#X text 27 19 to open;
#X obj 89 146 not;
#X obj 89 82 tgl 15 0 empty empty empty 17 7 0 10 -262144 -1 -1 0 1
;
#X obj 134 79 tgl 15 0 empty empty empty 17 7 0 10 -262144 -1 -1 0
1;
#X obj 101 225 tgl 15 0 empty empty empty 17 7 0 10 -262144 -1 -1 1
1;
#N canvas 1314 187 450 300 imports 0;
#X obj 51 35 import cyclone;
#X obj 49 65 import jmmmp;
#X msg 182 72 \; pd dsp 1;
#X obj 182 38 loadbang;
#X text 61 156 have a look at moonlib image;
#X obj 47 103 import iemlib;
#X connect 3 0 2 0;
#X restore 1351 23 pd imports;
#X obj 173 180 tgl 15 0 empty empty empty 17 7 0 10 -262144 -1 -1 0
1;
#X obj 167 143 xor;
#X obj 103 181 nand;
#X obj 187 227 or;
#X obj 288 262 mech-switch;
#X text 291 235 the mech switch no gui is not working;
#X connect 4 0 11 0;
#X connect 5 0 4 0;
#X connect 5 0 10 0;
#X connect 5 0 12 0;
#X connect 6 0 10 1;
#X connect 6 0 11 1;
#X connect 6 0 12 1;
#X connect 11 0 7 0;
#X connect 12 0 9 0;
