#N canvas 272 22 1440 852 10;
#X declare -lib cyclone;
#X declare -lib jmmmp;
#X declare -lib iemlib;
#X declare -lib flatgui;
#X declare -lib flatgui;
#N canvas 0 22 1440 852 imports 0;
#X obj 41 25 import cyclone;
#X obj 39 55 import jmmmp;
#X msg 172 62 \; pd dsp 1;
#X obj 172 28 loadbang;
#X text 51 146 have a look at moonlib image;
#X obj 37 93 import iemlib;
#X connect 3 0 2 0;
#X restore 488 118 pd imports;
#X obj 132 481 butt 30 14;
#X obj 200 85 butt 30 14;
#X obj 307 84 butt 30 14;
#X obj 351 489 butt 30 14;
#X text 174 21 Test Circuit for Logic Gates;
#X obj 204 257 mech_switch;
#X obj 526 39 cnv 20 30 30 empty empty HIGH -32 14 0 14 -260818 -33289
0;
#X obj 526 70 cnv 20 30 30 empty empty LOW -25 14 0 14 -90881 -33289
0;
#X text -110 22 Menu (pick a component);
#X text 420 20 legend of logic levels:;
#X obj -99 88 butt 30 14;
#X obj -100 262 and;
#X obj 213 150 and;
#X obj -99 689 mech_switch;
#X text -102 664 SWITCHES:;
#X text -99 148 LOGIC GATES;
#X text -101 66 INPUT/OUTPUT;
#X obj -100 459 xor;
#X obj -100 568 nand;
#X obj 196 680 butt 30 14;
#X obj 243 743 nand;
#X obj 249 845 butt 30 14;
#X text -100 803 CLOCK GENERATOR;
#X obj 382 555 clock-generator;
#X obj 383 678 butt 30 14;
#X obj -96 829 clock-generator;
#X obj -102 180 not;
#X obj 122 379 not;
#X obj 195 553 xor;
#X obj 358 385 or;
#X obj -99 358 or;
#X connect 1 0 29 0;
#X connect 2 0 13 0;
#X connect 3 0 13 1;
#X connect 3 0 30 1;
#X connect 4 0 24 0;
#X connect 4 0 29 1;
#X connect 6 0 28 0;
#X connect 6 1 30 0;
#X connect 13 0 6 0;
#X connect 20 0 21 0;
#X connect 21 0 22 0;
#X connect 24 0 25 0;
#X connect 25 0 21 1;
#X connect 28 0 1 0;
#X connect 29 0 20 0;
#X connect 30 0 4 0;
