#N canvas 15 22 450 300 10;
#X obj 95 14 inlet;
#X obj 194 218 outlet;
#X obj 246 218 outlet;
#X obj 43 136 spigot;
#X obj 151 16 loadbang;
#X msg 147 42 1;
#X obj 301 117 spigot;
#X obj 59 198 select 0;
#X obj 60 246 print reset switch left;
#X obj 328 200 select 0;
#X obj 329 248 print reset switch left;
#X msg 73 223 0;
#X msg 343 224 0;
#X obj 222 16 inlet;
#X obj 221 45 tgl 15 0 empty empty empty 17 7 0 10 -262144 -1 -1 0
1;
#X obj 177 125 change;
#X connect 0 0 3 0;
#X connect 0 0 6 0;
#X connect 3 0 1 0;
#X connect 4 0 5 0;
#X connect 5 0 6 1;
#X connect 5 0 3 1;
#X connect 5 0 7 0;
#X connect 5 0 9 0;
#X connect 6 0 2 0;
#X connect 7 0 11 0;
#X connect 7 0 8 0;
#X connect 9 0 12 0;
#X connect 9 0 10 0;
#X connect 11 0 1 0;
#X connect 12 0 2 0;
#X connect 13 0 14 0;
#X coords 0 300 1 299 150 100 0;
