#N canvas 15 22 450 300 10;
#X obj 95 14 inlet;
#X obj 174 125 tgl 15 0 empty empty empty 17 7 0 10 -262144 -1 -1 0
1;
#X text 194 123 input;
#X text 178 139 |;
#X obj 160 156 tgl 15 0 empty empty empty 17 7 0 10 -262144 -1 -1 1
1;
#X text 113 181 SWITCH;
#X text 163 180 |;
#X text 194 180 |;
#X obj 191 156 tgl 15 0 empty empty empty 17 7 0 10 -262144 -1 -1 1
1;
#X obj 194 218 outlet;
#X obj 246 218 outlet;
#X obj 43 136 spigot;
#X text 124 155 left;
#X text 214 155 right;
#X obj 151 16 loadbang;
#X msg 147 42 1;
#X obj 301 117 spigot;
#X obj 59 198 select 0;
#X obj 60 246 print reset switch left;
#X obj 328 200 select 0;
#X obj 329 248 print reset switch left;
#X msg 73 223 0;
#X msg 343 224 0;
#X connect 0 0 1 0;
#X connect 0 0 11 0;
#X connect 0 0 16 0;
#X connect 4 0 11 1;
#X connect 4 0 17 0;
#X connect 8 0 16 1;
#X connect 8 0 19 0;
#X connect 11 0 9 0;
#X connect 14 0 15 0;
#X connect 15 0 4 0;
#X connect 15 0 8 0;
#X connect 16 0 10 0;
#X connect 17 0 21 0;
#X connect 17 0 18 0;
#X connect 19 0 22 0;
#X connect 19 0 20 0;
#X connect 21 0 9 0;
#X connect 22 0 10 0;
#X coords 0 -1 1 1 150 100 2 100 100;
