#N canvas 250 50 1440 852 10;
#X declare -lib tof;
#X declare -lib iemguts;
#X declare -lib cyclone;
#X declare -lib cyclone;
#X text -313 19 testing a side menu bar;
#X obj -89 18 key;
#X msg -141 44 clear;
#X obj -314 109 tof/pmenu 1 1 black white red;
#X obj -250 48 bng 15 250 50 0 empty empty empty 17 7 0 10 -262144
-1 -1;
#X text -228 46 Pop the menu;
#X obj -89 44 sel 78;
#X msg -314 79 add not and or nand nor xor;
#X obj -314 46 loadbang;
#X obj -14 28 import tof;
#X obj -316 150 route add not and or nand nor xor;
#X obj -15 57 import iemguts;
#X text 60 27 imports pmenu;
#X text 82 56 imports receivecanvas;
#X obj -16 116 route motion;
#X obj -15 173 unpack f f f;
#X obj -15 200 s \$0-mouse-x;
#X obj 19 222 s \$0-mouse-y;
#X obj -213 179 r \$0-mouse-x;
#X obj -168 199 r \$0-mouse-y;
#X symbolatom -144 244 10 0 0 0 - - -;
#X text -132 77 menu items;
#X obj -155 19 r \$0-main-menu;
#X obj -229 244 pack s f f;
#X msg -229 269 obj \$2 \$3 \$1;
#X obj -147 373 printbox;
#X obj -209 216 + 10;
#X obj -229 374 sendcanvas 1;
#X obj -3 143 printbox;
#X obj -16 88 receivecanvas 1;
#X connect 1 0 6 0;
#X connect 2 0 3 0;
#X connect 3 1 10 0;
#X connect 3 1 20 0;
#X connect 4 0 3 0;
#X connect 6 0 3 0;
#X connect 7 0 3 0;
#X connect 8 0 7 0;
#X connect 14 0 15 0;
#X connect 14 0 28 0;
#X connect 15 0 16 0;
#X connect 15 1 17 0;
#X connect 18 0 26 0;
#X connect 19 0 23 2;
#X connect 20 0 23 0;
#X connect 22 0 3 0;
#X connect 23 0 24 0;
#X connect 24 0 25 0;
#X connect 24 0 27 0;
#X connect 26 0 23 1;
#X connect 29 0 14 0;
