#N canvas 293 102 450 300 10;
#X obj -178 193 outlet;
#X obj -133 32 select 0 1;
#X msg -173 81 1;
#X msg -87 83 0;
#X obj 29 79 bitand~;
#X obj 36 104 unsig~;
#X obj 29 35 inlet;
#X obj 78 36 inlet;
#X obj 117 117 tgl 15 0 empty empty empty 17 7 0 10 -262144 -1 -1 0
1;
#X obj 168 117 tgl 15 0 empty empty empty 17 7 0 10 -262144 -1 -1 0
1;
#X text 170 133 |;
#X text 142 145 |;
#X obj 139 161 tgl 15 0 empty empty empty 17 7 0 10 -262144 -1 -1 1
1;
#X text 160 160 out;
#X text 119 133 |;
#X text 124 137 --------;
#X text 189 116 2;
#X text 103 115 1;
#X text 102 160 NAND;
#X connect 1 0 2 0;
#X connect 1 1 3 0;
#X connect 2 0 0 0;
#X connect 2 0 12 0;
#X connect 3 0 0 0;
#X connect 3 0 12 0;
#X connect 4 0 5 0;
#X connect 5 0 1 0;
#X connect 6 0 4 0;
#X connect 6 0 8 0;
#X connect 7 0 4 1;
#X connect 7 0 9 0;
#X coords 0 -1 1 1 100 80 2 100 100;
