#N canvas 293 102 450 300 10;
#X obj -178 193 outlet;
#X obj -133 32 select 0 1;
#X msg -173 81 1;
#X msg -87 83 0;
#X obj 29 79 bitand~;
#X obj 36 104 unsig~;
#X obj 29 35 inlet;
#X obj 78 36 inlet;
#X obj -33 36 loadbang;
#X msg -33 61 mode 1;
#X connect 1 0 2 0;
#X connect 1 1 3 0;
#X connect 2 0 0 0;
#X connect 3 0 0 0;
#X connect 4 0 5 0;
#X connect 5 0 1 0;
#X connect 6 0 4 0;
#X connect 7 0 4 1;
#X connect 8 0 9 0;
#X connect 9 0 4 0;
#X coords 0 300 1 299 100 80 0;
