#N canvas 0 22 1440 852 10;
#X obj 85 54 inlet;
#X obj 85 156 outlet;
#X obj 85 83 select 0 1;
#X msg 85 120 1;
#X msg 117 121 0;
#X connect 0 0 2 0;
#X connect 2 0 3 0;
#X connect 2 1 4 0;
#X connect 3 0 1 0;
#X connect 4 0 1 0;
#X coords 0 852 1 851 85 60 0;
