#N canvas 913 127 450 300 10;
#X obj 43 31 inlet;
#X obj 92 32 inlet;
#X obj 43 131 outlet;
#X obj 131 113 tgl 15 0 empty empty empty 17 7 0 10 -262144 -1 -1 0
1;
#X obj 182 113 tgl 15 0 empty empty empty 17 7 0 10 -262144 -1 -1 0
1;
#X text 184 129 |;
#X text 156 141 |;
#X obj 153 157 tgl 15 0 empty empty empty 17 7 0 10 -262144 -1 -1 0
1;
#X text 174 156 out;
#X text 133 129 |;
#X text 138 133 --------;
#X text 203 112 2;
#X text 117 111 1;
#X obj 43 75 bitor~;
#X text 103 156 OR;
#X obj 43 101 unsig~;
#X connect 0 0 3 0;
#X connect 0 0 13 0;
#X connect 1 0 4 0;
#X connect 1 0 13 1;
#X connect 13 0 15 0;
#X connect 15 0 2 0;
#X connect 15 0 7 0;
#X coords 0 -1 1 1 120 80 2 100 100;
