#N canvas 913 127 450 300 10;
#X obj 43 31 inlet;
#X obj 92 32 inlet;
#X obj 43 131 outlet;
#X obj 43 75 bitor~;
#X obj 43 101 unsig~;
#X obj -17 32 loadbang;
#X msg -17 60 mode 1;
#X connect 0 0 3 0;
#X connect 1 0 3 1;
#X connect 3 0 4 0;
#X connect 4 0 2 0;
#X connect 5 0 6 0;
#X connect 6 0 3 0;
