#N canvas 0 22 1440 852 10;
#X obj 55 662 unsig~;
#X obj 55 590 inlet;
#X obj 104 591 inlet;
#X obj 55 690 outlet;
#X obj 55 634 bitxor~;
#X obj 156 587 loadbang;
#X msg 156 613 mode 1;
#X connect 0 0 3 0;
#X connect 1 0 4 0;
#X connect 2 0 4 1;
#X connect 4 0 0 0;
#X connect 5 0 6 0;
#X connect 6 0 4 0;
#X coords 0 852 1 851 150 100 0;
