#N canvas 0 22 450 300 10;
#X obj 55 110 unsig~;
#X obj 55 38 inlet;
#X obj 104 39 inlet;
#X obj 55 138 outlet;
#X obj 143 120 tgl 15 0 empty empty empty 17 7 0 10 -262144 -1 -1 0
1;
#X obj 194 120 tgl 15 0 empty empty empty 17 7 0 10 -262144 -1 -1 0
1;
#X text 196 136 |;
#X text 168 148 |;
#X obj 165 164 tgl 15 0 empty empty empty 17 7 0 10 -262144 -1 -1 0
1;
#X text 186 163 out;
#X text 145 136 |;
#X text 150 140 --------;
#X text 215 119 2;
#X text 129 118 1;
#X obj 55 82 bitxor~;
#X text 115 163 XOR;
#X connect 0 0 3 0;
#X connect 0 0 8 0;
#X connect 1 0 4 0;
#X connect 1 0 14 0;
#X connect 2 0 5 0;
#X connect 2 0 14 1;
#X connect 14 0 0 0;
#X coords 0 -1 1 1 150 100 2 100 100;
