#N canvas 0 22 1440 852 10;
#X obj -32 558 cnv 15 552 21 empty \$0-pddp.cnv.footer empty 20 12
0 14 -228856 -66577 0;
#X obj -31 -2 cnv 15 552 40 empty empty random~ 3 12 0 18 -204280 -1
0;
#X obj -31 436 cnv 3 550 3 empty \$0-pddp.cnv.inlets inlets 8 12 0
13 -228856 -1 0;
#N canvas 50 246 494 363 META 0;
#X text 12 173 RELEASE_DATE 2015;
#X text 12 133 AUTHOR Pedro Lopes;
#X text 12 25 LICENSE GPL;
#X text 12 153 WEBSITE http://plopes.org;
#X text 13 45 DESCRIPTION a random number generator that seeds based
on adc~ input;
#X text 12 81 INLET_0 bang;
#X text 12 113 LIBRARY plopes;
#X text 12 96 INLET_0 float;
#X text 12 6 KEYWORDS random adc~ random based on input noise;
#X restore 470 560 pd META;
#X obj -31 495 cnv 3 550 3 empty \$0-pddp.cnv.argument arguments 8
12 0 13 -228856 -1 0;
#N canvas 74 346 282 120 Related_objects 0;
#X obj 1 1 cnv 15 425 20 empty \$0-pddp.cnv.subheading empty 3 12 0
14 -204280 -1 0;
#X text 8 2 [random~] Related Objects;
#X text 10 38 go to this page: http://blazicek.net/list_of_pure_data_objects.html
for implemntations;
#X text 11 85 and search for the keyword random;
#X restore 70 560 pd Related_objects;
#X obj -28 560 pddp/pddplink all_about_help_patches.pd -text Usage
Guide;
#X obj 45 465 cnv 17 3 17 empty \$0-pddp.cnv.let.1 2 5 9 0 16 -228856
-162280 0;
#X obj 45 444 cnv 17 3 17 empty \$0-pddp.cnv.let.0 1 5 9 0 16 -228856
-162280 0;
#X text -20 21 a random number generator that seeds based on adc~ input
;
#X obj -18 135 bng 15 250 50 0 empty empty empty 17 7 0 10 -262144
-1 -1;
#X text 1 134 send anything to output a random number;
#X text -17 265 random generated based on a seed that was calculated
from [adc~] noise;
#X text -16 50 [random~] generates pseudo-random numbers (within a
range) based on a seed computed from [adc~].;
#X floatatom -18 243 5 0 0 0 - - -;
#X msg 58 153 10;
#X text 91 151 use this to change range from 0-<your number>;
#X text 68 444 anything;
#X text 138 445 - will make a bang and cause a number to be generated
;
#X obj 45 522 cnv 17 3 17 empty \$0-pddp.cnv.let.0 1 5 9 0 16 -228856
-162280 0;
#X text 137 522 - integer message to set range from 0-N;
#X text 68 522 float;
#X text -16 95 To use it just create [random~] and yo get:;
#X text -17 320 if you want you can use it directly with static arguments.
For this create [random~ 10 1];
#X floatatom -15 401 5 0 0 0 - - -;
#X obj -15 357 bng 15 250 50 0 empty empty empty 17 7 0 10 -262144
-1 -1;
#X text 137 467 - integer message to set range;
#X text 70 466 float;
#X floatatom 162 401 5 0 0 0 - - -;
#X obj 162 379 random~ 10;
#X text 21 401 output is not the same;
#X obj -18 213 random~;
#X obj -15 379 random~ 10;
#X connect 10 0 31 0;
#X connect 15 0 31 1;
#X connect 25 0 29 0;
#X connect 25 0 32 0;
#X connect 29 0 28 0;
#X connect 31 0 14 0;
#X connect 32 0 24 0;
