#N canvas 0 22 1440 852 10;
#X declare -lib ggee;
#X floatatom 63 274 4 0 0 0 - - -;
#X obj 63 251 shell;
#X msg 61 142 bang;
#X obj 62 174 getdir 1;
#X obj 184 143 pack s f f;
#X msg 63 204 \$1/randomorg.sh -f an -l 1 -q -m \$2 -M \$3;
#X obj 203 115 \$1;
#X obj 204 80 inlet;
#X obj 248 79 inlet;
#X obj 143 79 loadbang;
#X obj 259 115 \$2;
#X obj 59 80 inlet;
#X obj 191 228 import ggee;
#X obj 64 297 outlet;
#X obj 112 296 outlet;
#X obj 109 272 bang;
#X text 265 232 for shell and getdir;
#X obj 188 172 print PACKED;
#X obj 99 227 print SHELL;
#X connect 0 0 13 0;
#X connect 1 0 0 0;
#X connect 1 1 15 0;
#X connect 2 0 3 0;
#X connect 3 0 4 0;
#X connect 4 0 5 0;
#X connect 4 0 17 0;
#X connect 5 0 1 0;
#X connect 5 0 18 0;
#X connect 6 0 4 1;
#X connect 7 0 4 1;
#X connect 8 0 4 2;
#X connect 9 0 6 0;
#X connect 9 0 10 0;
#X connect 10 0 4 2;
#X connect 11 0 2 0;
#X connect 15 0 14 0;
