#N canvas 167 28 1440 852 10;
#X declare -lib moonlib;
#X msg -26 584 menuclose;
#X obj -95 1022 print value-from-TestClass;
#X msg -87 487 connect 0 0 1 0;
#X msg -87 430 obj 20 27 loadbang;
#X text 201 423 0;
#X text 201 461 1;
#X text 201 518 2;
#X msg -87 549 connect 1 0 2 0;
#X obj -87 385 t b b b b b b;
#X msg -89 585 loadbang;
#X obj -86 358 t b b;
#X msg -88 518 obj 20 67 python reloader Reloader;
#X msg -88 462 msg 20 47 reload_demo_module;
#X msg -118 268 start;
#X msg -70 267 reload;
#X obj -128 309 route start reload;
#X obj 11 347 bang;
#X obj -111 336 bang;
#X msg 487 614 menuclose;
#X text 824 423 0;
#X text 824 461 1;
#X obj 426 385 t b b b b b b;
#X msg 424 615 loadbang;
#X msg 426 518 connect 0 0 1 0;
#X text -84 232 receives commands: start/reload;
#X obj 122 651 bang;
#X obj 451 354 t b b b;
#X msg 548 408 clear;
#X text 713 551 2;
#X msg 426 579 connect 1 0 2 0;
#X obj 122 676 delay 500;
#X text -119 251 start = starts reloader;
#X text -26 268 reload = reloads patch;
#X symbolatom 111 168 20 0 0 0 - - -;
#X symbolatom 111 208 20 0 0 0 - - -;
#X obj 317 59 symbol \$1;
#X msg 316 86 set \$1;
#X msg 395 85 set \$1;
#X text 98 79 region for GOP;
#X obj 397 60 symbol \$2;
#X obj 426 452 pack s s;
#X msg 426 478 obj 230 227 python \$1 \$2;
#X obj 102 45 t b b;
#X text 202 399 object creation order;
#X text 822 399 object creation order;
#X obj -125 750 outlet;
#X text 16 722 everything from python comes out here;
#X text 110 149 python filename (without .py);
#X text 110 189 python ClassName to load;
#X obj -122 42 inlet;
#X text -123 94 sends this to python;
#X text -125 20 1 input inlet = data to be sent to python;
#X obj 112 133 bng 15 250 50 0 empty empty empty 17 7 0 10 -4034 -1
-1;
#X obj 546 8 loadbang;
#X obj -120 214 t b b;
#X text 136 131 hit to reload class (once);
#X obj 113 234 tgl 15 0 empty empty empty 17 7 0 10 -262144 -1 -1 0
1;
#X floatatom 113 257 5 0 0 0 - - -;
#X text 152 256 reload time (milliseconds);
#X text 136 231 activate auto-reload file;
#X msg 472 59 1000;
#X text 514 60 default reload time is 1 s;
#X obj 331 254 metro;
#X text 373 254 auto-reload metro;
#N canvas 951 226 450 300 get_current_directory_hack 1;
#X obj 52 44 inlet;
#X obj 288 23 import moonlib;
#X obj 52 119 absolutepath;
#X obj 52 152 basedir;
#X obj 52 186 unpack s s;
#X symbolatom 52 208 0 0 0 0 - - -;
#X symbolatom 117 208 0 0 0 0 - - -;
#X obj 117 244 outlet;
#X msg 52 85 symbol dtw-help.pd;
#X text 193 84 just found;
#X obj 347 150 getdir;
#X msg 347 112 bang;
#X obj 346 188 print;
#X text 188 220 You can also get the path of the parent patch \, if
this patch is an object embedded in another patch. You use the argument
to set how many levels up to go:;
#X msg 269 267 bang;
#X obj 268 343 print;
#X obj 269 305 getdir 1;
#X msg 464 264 bang;
#X obj 463 340 print;
#X obj 464 302 getdir 2;
#X text 188 386 If there is no parent at that level \, it returns the
directory as if there was no argument \, i.e. level 0;
#X text 197 101 in ggee;
#X connect 0 0 8 0;
#X connect 2 0 3 0;
#X connect 3 0 4 0;
#X connect 4 0 5 0;
#X connect 4 1 6 0;
#X connect 6 0 7 0;
#X connect 8 0 2 0;
#X connect 10 0 12 0;
#X connect 11 0 10 0;
#X connect 14 0 16 0;
#X connect 16 0 15 0;
#X connect 17 0 19 0;
#X connect 19 0 18 0;
#X restore 550 125 pd get_current_directory_hack;
#X obj 550 92 bng 15 250 50 0 empty empty empty 17 7 0 10 -262144 -1
-1;
#X text 655 215 append #X pop1 \; if you need debug;
#X obj -125 722 r \$0-python-talkback-out;
#X obj 601 729 namecanvas \$0-pdpython_dyn;
#X obj 710 59 f \$0;
#X msg 706 96 symbol pd-\$1-holds-python.pd;
#X obj 551 204 pack s f;
#X obj 479 119 pack s f;
#X obj 711 35 bng 15 250 50 0 empty empty empty 17 7 0 10 -262144 -1
-1;
#X obj 424 642 r \$0-create-s-dynamically-holds;
#X obj 786 159 s \$0-create-s-dynamically-holds;
#X msg 72 549 obj 50 50 print handles;
#X msg 605 488 obj 50 50 print holds;
#X obj -89 622 r \$0-create-s-dynamically-handles;
#X obj 910 138 s \$0-create-s-dynamically-handles;
#X msg 895 94 symbol pd-\$1-handle-python-reloads.pd;
#X text 226 549 for debug;
#X text 740 487 for debug;
#X text 599 705 dont think this is needed \, to check;
#X obj -127 679 s;
#X obj 386 677 s;
#X msg 502 433 obj 230 200 r \$1-python-talkback-in;
#X obj 502 410 f \$0;
#X obj -122 74 s \$0-python-talkback-in;
#X obj 531 517 f \$0;
#X msg 531 546 obj 230 247 s \$1-python-talkback-out;
#X text 828 547 2;
#X obj 546 34 t b b b b;
#X obj 318 28 bang;
#X msg 479 150 \; pd filename \$2-handle-python-reloads.pd \$1 \; #N
canvas \;;
#X msg 552 257 \; pd filename \$2-holds-python.pd \$1 \; #N canvas
\;;
#X connect 0 0 84 0;
#X connect 0 0 84 0;
#X connect 2 0 84 0;
#X connect 3 0 84 0;
#X connect 7 0 84 0;
#X connect 8 1 7 0;
#X connect 8 2 11 0;
#X connect 8 3 2 0;
#X connect 8 4 12 0;
#X connect 8 5 3 0;
#X connect 9 0 25 0;
#X connect 9 0 84 0;
#X connect 10 0 8 0;
#X connect 11 0 84 0;
#X connect 12 0 84 0;
#X connect 13 0 15 0;
#X connect 14 0 15 0;
#X connect 15 0 17 0;
#X connect 15 1 16 0;
#X connect 16 0 9 0;
#X connect 17 0 10 0;
#X connect 18 0 85 0;
#X connect 21 1 29 0;
#X connect 21 2 89 0;
#X connect 21 3 23 0;
#X connect 21 4 42 0;
#X connect 21 5 22 0;
#X connect 21 5 87 0;
#X connect 22 0 85 0;
#X connect 23 0 85 0;
#X connect 25 0 30 0;
#X connect 26 0 21 0;
#X connect 26 2 27 0;
#X connect 27 0 85 0;
#X connect 29 0 85 0;
#X connect 30 0 26 0;
#X connect 33 0 40 0;
#X connect 34 0 40 1;
#X connect 35 0 36 0;
#X connect 36 0 33 0;
#X connect 37 0 34 0;
#X connect 39 0 37 0;
#X connect 40 0 41 0;
#X connect 41 0 85 0;
#X connect 42 0 33 0;
#X connect 42 1 34 0;
#X connect 49 0 88 0;
#X connect 52 0 14 0;
#X connect 53 0 92 0;
#X connect 54 0 26 0;
#X connect 54 1 13 0;
#X connect 56 0 62 0;
#X connect 57 0 62 1;
#X connect 60 0 57 0;
#X connect 62 0 14 0;
#X connect 64 0 71 0;
#X connect 64 0 72 0;
#X connect 65 0 64 0;
#X connect 67 0 45 0;
#X connect 69 0 70 0;
#X connect 69 0 71 1;
#X connect 69 0 72 1;
#X connect 69 0 80 0;
#X connect 70 0 75 0;
#X connect 71 0 95 0;
#X connect 72 0 94 0;
#X connect 73 0 69 0;
#X connect 74 0 85 0;
#X connect 74 0 85 1;
#X connect 76 0 84 0;
#X connect 77 0 85 0;
#X connect 78 0 84 1;
#X connect 80 0 79 0;
#X connect 86 0 85 0;
#X connect 87 0 86 0;
#X connect 89 0 90 0;
#X connect 90 0 85 0;
#X connect 92 0 54 0;
#X connect 92 1 64 0;
#X connect 92 2 69 0;
#X connect 92 3 93 0;
#X connect 93 0 35 0;
#X connect 93 0 39 0;
#X connect 93 0 60 0;
#X coords 0 -1 1 1 220 180 1 100 100;
