#N canvas 340 35 1440 852 10;
#X declare -lib moonlib;
#X msg -26 584 menuclose;
#X obj -127 619 s pd-handle-python-reloads.pd;
#X symbolatom -98 990 10 0 0 0 - - -;
#X obj -95 1022 print value-from-TestClass;
#X text 134 1003 Try the query again. Note that the object hasn't changed
\, and the same response is returned.;
#X text 134 979 Next \, use the helper Reloader object to reload demo_module.
;
#X msg -87 487 connect 0 0 1 0;
#X msg -87 430 obj 20 27 loadbang;
#X text 201 423 0;
#X text 201 461 1;
#X text 201 518 2;
#X msg -87 549 connect 1 0 2 0;
#X obj -87 385 t b b b b b b;
#X msg -89 585 loadbang;
#X obj -86 358 t b b;
#X msg -88 518 obj 20 67 python reloader Reloader;
#X msg -88 462 msg 20 47 reload_demo_module;
#X msg -118 268 start;
#X msg -70 267 reload;
#X obj -128 309 route start reload;
#X obj 11 347 bang;
#X obj -111 336 bang;
#X msg 487 614 menuclose;
#X text 714 423 0;
#X text 714 461 1;
#X obj 426 385 t b b b b b b;
#X msg 424 615 loadbang;
#X msg 426 518 connect 0 0 1 0;
#X text -84 232 receives commands: start/reload;
#X obj 72 619 bang;
#X obj 451 354 t b b b;
#X msg 548 408 clear;
#X text 713 551 2;
#X msg 426 579 connect 1 0 2 0;
#X msg 426 430 obj 230 200 r python-talkback-in;
#X msg 731 481 obj 230 227 python demo_module TestClass;
#X msg 426 548 obj 230 247 s python-talkback-out;
#X obj 386 647 s pd-holds-python.pd;
#X obj 72 644 delay 500;
#X text -119 251 start = starts reloader;
#X text -26 268 reload = reloads patch;
#X symbolatom 111 168 20 0 0 0 - - -;
#X obj 319 28 loadbang;
#X symbolatom 111 208 20 0 0 0 - - -;
#X obj 317 59 symbol \$1;
#X msg 316 86 set \$1;
#X msg 395 85 set \$1;
#X text 98 79 region for GOP;
#X obj 397 60 symbol \$2;
#X obj 426 452 pack s s;
#X msg 426 478 obj 230 227 python \$1 \$2;
#X obj 102 45 t b b;
#X text 989 482 for debug;
#X text 202 399 object creation order;
#X text 712 399 object creation order;
#X obj -125 710 outlet;
#X obj -125 682 r python-talkback-out;
#X text 16 681 everything from python comes out here;
#X text 110 149 python filename (without .py);
#X text 110 189 python ClassName to load;
#X obj -122 42 inlet;
#X text -123 94 sends this to python;
#X text -125 20 1 input inlet = data to be sent to python;
#X obj 112 133 bng 15 250 50 0 empty empty empty 17 7 0 10 -4034 -1
-1;
#X obj -121 188 loadbang;
#X obj -120 214 t b b;
#X obj -122 74 s python-talkback-in;
#X text 136 131 hit to reload class (once);
#X obj 113 234 tgl 15 0 empty empty empty 17 7 0 10 -262144 -1 -1 0
1;
#X floatatom 113 257 5 0 0 0 - - -;
#X text 152 256 reload time (milliseconds);
#X text 136 231 activate auto-reload file;
#X msg 472 59 1000;
#X text 514 60 default reload time is 1 s;
#X obj 331 254 metro;
#X text 373 254 auto-reload metro;
#N canvas 951 226 450 300 get_current_directory_hack 0;
#X obj 52 44 inlet;
#X msg 52 85 symbol pdpython-help.pd;
#X obj 288 23 import moonlib;
#X obj 52 119 absolutepath;
#X obj 52 152 basedir;
#X obj 52 186 unpack s s;
#X symbolatom 52 208 0 0 0 0 - - -;
#X symbolatom 117 208 0 0 0 0 - - -;
#X obj 117 244 outlet;
#X connect 0 0 1 0;
#X connect 1 0 3 0;
#X connect 3 0 4 0;
#X connect 4 0 5 0;
#X connect 5 0 6 0;
#X connect 5 1 7 0;
#X connect 7 0 8 0;
#X restore 550 125 pd get_current_directory_hack;
#X obj 550 92 bng 15 250 50 0 empty empty empty 17 7 0 10 -262144 -1
-1;
#X text 739 174 append #X pop1 \; if you need debug;
#X text 753 244 append #X pop1 \; if you need debug;
#X msg 549 217 \; pd filename holds-python.pd \$1 \; #N canvas \;;
#X msg 479 149 \; pd filename handle-python-reloads.pd \$1 \; #N canvas
\;;
#X connect 0 0 1 0;
#X connect 0 0 1 0;
#X connect 2 0 3 0;
#X connect 6 0 1 0;
#X connect 7 0 1 0;
#X connect 11 0 1 0;
#X connect 12 1 11 0;
#X connect 12 2 15 0;
#X connect 12 3 6 0;
#X connect 12 4 16 0;
#X connect 12 5 7 0;
#X connect 13 0 1 0;
#X connect 13 0 29 0;
#X connect 14 0 12 0;
#X connect 14 1 76 0;
#X connect 15 0 1 0;
#X connect 16 0 1 0;
#X connect 17 0 19 0;
#X connect 18 0 19 0;
#X connect 19 0 21 0;
#X connect 19 1 20 0;
#X connect 20 0 13 0;
#X connect 21 0 14 0;
#X connect 22 0 37 0;
#X connect 25 1 33 0;
#X connect 25 2 36 0;
#X connect 25 3 27 0;
#X connect 25 4 51 0;
#X connect 25 5 34 0;
#X connect 25 5 26 0;
#X connect 26 0 37 0;
#X connect 27 0 37 0;
#X connect 29 0 38 0;
#X connect 30 0 25 0;
#X connect 30 2 31 0;
#X connect 31 0 37 0;
#X connect 33 0 37 0;
#X connect 34 0 37 0;
#X connect 35 0 37 0;
#X connect 36 0 37 0;
#X connect 38 0 30 0;
#X connect 41 0 49 0;
#X connect 42 0 44 0;
#X connect 42 0 48 0;
#X connect 42 0 72 0;
#X connect 43 0 49 1;
#X connect 44 0 45 0;
#X connect 45 0 41 0;
#X connect 46 0 43 0;
#X connect 48 0 46 0;
#X connect 49 0 50 0;
#X connect 50 0 37 0;
#X connect 51 0 41 0;
#X connect 51 1 43 0;
#X connect 56 0 55 0;
#X connect 60 0 66 0;
#X connect 63 0 18 0;
#X connect 64 0 65 0;
#X connect 65 0 30 0;
#X connect 65 1 17 0;
#X connect 68 0 74 0;
#X connect 69 0 74 1;
#X connect 72 0 69 0;
#X connect 74 0 18 0;
#X connect 76 0 81 0;
#X connect 76 0 80 0;
#X connect 77 0 76 0;
#X coords 0 -1 1 1 220 180 1 100 100;
