#N canvas 0 22 849 750 10;
#X obj 42 107 bang;
#X obj 42 172 route 0 1;
#X obj 42 134 counter 1;
#X obj 42 196 bang;
#X obj 102 199 bang;
#X obj 42 42 inlet;
#X obj 82 42 inlet;
#X obj 122 42 inlet;
#X obj 42 258 outlet;
#X obj 42 78 metro;
#X obj 116 225 delay;
#X obj 42 225 delay;
#X connect 0 0 2 0;
#X connect 1 0 3 0;
#X connect 1 1 4 0;
#X connect 2 0 1 0;
#X connect 3 0 11 0;
#X connect 4 0 10 0;
#X connect 5 0 9 0;
#X connect 6 0 9 1;
#X connect 7 0 10 1;
#X connect 7 0 11 1;
#X connect 9 0 0 0;
#X connect 10 0 8 0;
#X connect 11 0 8 0;
