#N canvas 15 22 450 300 10;
#X obj 243 214 inlet;
#X obj 343 214 inlet;
#X obj 212 453 vol~;
#X obj 322 182 nbx 3 14 -1e+37 1e+37 0 1 empty empty VOL -20 7 0 10
-262144 -1 -1 99.47 256;
#X obj 240 160 nbx 5 14 20 20000 1 1 empty empty T1 -20 7 0 10 -24198
-1 -1 552.632 256;
#X obj 174 160 nbx 3 14 -1e+37 1e+37 0 1 empty empty A' -14 7 0 10
-225271 -1 -1 0 256;
#X obj 143 236 +;
#X obj 112 159 nbx 3 14 -1e+37 1e+37 0 1 empty empty A -10 7 0 10 -260818
-1 -1 -1 256;
#X obj 144 302 +;
#X obj 113 180 nbx 3 14 -1e+37 1e+37 0 1 empty empty D -10 7 0 10 -260818
-1 -1 113 256;
#X obj 143 213 *;
#X obj 144 264 *;
#X obj 201 477 outlet~;
#X obj 180 134 tgl 15 1 empty empty empty 0 -6 0 8 -262144 -1 -1 1
1;
#X obj 278 283 spigot;
#X obj 174 180 nbx 3 14 -1e+37 1e+37 0 1 empty empty D' -14 7 0 10
-225271 -1 -1 45 256;
#X obj 240 181 nbx 5 14 20 20000 1 1 empty empty T2 -20 7 0 10 -24198
-1 -1 151.334 256;
#X obj 322 160 nbx 5 14 20 20000 1 1 empty empty T3 -20 7 0 10 -24198
-1 -1 9652.14 256;
#X text 109 132 ti_snare;
#X obj 286 339 ead~;
#X obj 336 377 osc~;
#X obj 222 302 osc~;
#X obj 209 416 *~;
#X obj 342 308 noise~;
#X obj 340 340 lop~;
#X obj 251 339 *~;
#X obj 182 380 *~;
#X obj 203 337 *~;
#X obj 254 239 t b b;
#X obj 216 240 f 0;
#X obj 401 214 inlet;
#X obj 455 215 inlet;
#X obj 502 214 inlet;
#X connect 0 0 28 0;
#X connect 1 0 29 0;
#X connect 2 0 12 0;
#X connect 3 0 2 1;
#X connect 4 0 21 0;
#X connect 5 0 10 1;
#X connect 6 0 19 1;
#X connect 7 0 6 1;
#X connect 8 0 19 2;
#X connect 9 0 8 1;
#X connect 10 0 6 0;
#X connect 11 0 8 0;
#X connect 13 0 14 1;
#X connect 14 0 19 0;
#X connect 15 0 11 1;
#X connect 16 0 20 0;
#X connect 17 0 24 1;
#X connect 19 0 22 1;
#X connect 19 0 25 1;
#X connect 19 0 26 1;
#X connect 20 0 22 0;
#X connect 21 0 25 0;
#X connect 21 0 27 0;
#X connect 22 0 2 0;
#X connect 23 0 24 0;
#X connect 24 0 22 0;
#X connect 24 0 27 1;
#X connect 25 0 22 0;
#X connect 26 0 22 1;
#X connect 27 0 26 0;
#X connect 28 0 14 0;
#X connect 28 1 29 0;
#X connect 29 0 10 0;
#X connect 29 0 11 0;
#X connect 30 0 4 0;
#X connect 31 0 16 0;
#X connect 32 0 17 0;
#X coords 0 -1 1 1 300 100 1 100 100;
