#N canvas 650 158 728 494 10;
#X obj 77 60 inlet;
#X text 75 38 base value;
#X obj 24 62 inlet;
#X text 21 39 bang/hot;
#X obj 147 60 inlet;
#X text 145 38 amount to add/sub;
#X obj 399 59 inlet;
#X text 397 37 operation:add/sub;
#X obj 267 60 inlet;
#X text 265 38 random-amount to add;
#X obj 194 358 outlet;
#X text 192 377 one value;
#X obj 217 122 route add sub;
#X obj 154 212 spigot;
#X obj 187 181 tgl 15 0 empty empty empty 17 7 0 10 -262144 -1 -1 0
1;
#X msg 193 148 1;
#X msg 161 148 0;
#X obj 234 212 spigot;
#X obj 267 181 tgl 15 0 empty empty empty 17 7 0 10 -262144 -1 -1 1
1;
#X msg 273 148 1;
#X msg 241 148 0;
#X obj 37 134 +;
#X obj 201 300 +;
#X obj 398 89 symbol \$1;
#X text 468 89 can load add/sub by argument;
#X obj 37 174 -;
#X obj 228 269 random;
#X obj 22 90 t b b;
#X obj 449 60 loadbang;
#X msg 398 123 \$1;
#X floatatom 76 150 5 0 0 0 - - -;
#X floatatom 77 206 5 0 0 0 - - -;
#X floatatom 153 98 5 0 0 0 - - -;
#X floatatom 85 101 5 0 0 0 - - -;
#X floatatom 232 302 5 0 0 0 - - -;
#X connect 0 0 21 0;
#X connect 0 0 25 0;
#X connect 0 0 33 0;
#X connect 2 0 27 0;
#X connect 4 0 21 1;
#X connect 4 0 25 1;
#X connect 4 0 32 0;
#X connect 6 0 12 0;
#X connect 8 0 26 1;
#X connect 12 0 16 0;
#X connect 12 0 15 0;
#X connect 12 1 20 0;
#X connect 12 1 19 0;
#X connect 13 0 22 0;
#X connect 14 0 13 1;
#X connect 15 0 14 0;
#X connect 16 0 18 0;
#X connect 17 0 22 0;
#X connect 18 0 17 1;
#X connect 19 0 18 0;
#X connect 20 0 14 0;
#X connect 21 0 13 0;
#X connect 21 0 30 0;
#X connect 22 0 10 0;
#X connect 23 0 29 0;
#X connect 25 0 31 0;
#X connect 25 0 17 0;
#X connect 26 0 22 1;
#X connect 26 0 34 0;
#X connect 27 0 21 0;
#X connect 27 0 25 0;
#X connect 27 1 26 0;
#X connect 28 0 23 0;
#X connect 29 0 12 0;
