#N canvas 117 22 1440 852 10;
#X declare -lib iemlib;
#X declare -lib flatspace;
#X declare -lib flatspace;
#X obj 106 122 tgl 13 0 empty empty empty 0 -6 0 8 -233017 -1 -1 1
1;
#X obj 108 613 outlet;
#X obj 128 122 nbx 4 13 1 1e+37 0 0 empty empty empty 0 -6 0 10 -233017
-1 -1 1000 256;
#X obj 109 -141 loadbang;
#X obj 109 -121 t b b;
#X obj 149 -121 inlet;
#X obj 69 -121 inlet;
#X obj 183 116 vradio 15 1 0 4 empty empty empty 0 -8 0 10 -262144
-1 -1 3;
#X text 206 114 early;
#X text 206 130 on-the-beat;
#X text 206 160 fuzzy;
#X text 182 98 style:;
#X text 287 98 swing amount:;
#X floatatom 289 116 5 0 0 0 - - -;
#X obj 389 115 vradio 15 1 0 2 empty empty empty 0 -8 0 10 -262144
-1 -1 0;
#X text 387 98 when:;
#X text 411 128 always;
#X text 411 112 random;
#X floatatom 290 160 5 0 0 0 - - -;
#X text 287 141 random amount:;
#X floatatom 390 161 5 0 100 0 - - -;
#X text 387 143 probability:;
#X text 106 101 tempo (ms):;
#X obj 448 -127 import iemlib;
#X text 542 -129 for the amazing default;
#X floatatom 110 161 5 0 100 0 - - -;
#X text 107 143 probability:;
#X text 107 134 fuzzy;
#X obj 205 -138 loadbang;
#X msg 205 -109 0;
#X msg 242 -110 20;
#X msg 278 -110 10;
#X msg 351 -111 60;
#X text 464 144 (%);
#X text 332 117 (ms);
#X text 335 158 (ms);
#X text 149 160 (%);
#N canvas 621 247 1440 852 process-probability-master 0;
#X obj 59 35 inlet;
#X obj 134 35 inlet;
#X text 134 13 on/off toggle;
#X obj 329 36 inlet;
#X text 329 14 probability;
#X text 57 12 input beat;
#X obj -9 34 inlet;
#X obj 71 320 outlet;
#X text -11 11 on-beat;
#X obj 81 161 spigot;
#X obj 116 128 tgl 15 0 empty empty empty 17 7 0 10 -262144 -1 -1 0
1;
#X text 295 188 fuzzy;
#X obj 404 159 import flatspace;
#X obj 331 159 randomF 1;
#X obj 331 188 moses 0.5;
#X msg 375 218 0;
#X msg 411 217 1;
#X msg 298 219 0;
#X msg 334 218 1;
#X obj 329 123 spigot;
#X obj 399 103 tgl 15 0 empty empty empty 17 7 0 10 -262144 -1 -1 1
1;
#X obj -5 160 spigot;
#X obj 30 127 tgl 15 0 empty empty empty 17 7 0 10 -262144 -1 -1 1
1;
#X obj 120 60 select 0 1;
#X msg 169 88 0;
#X msg 209 87 1;
#X msg 96 89 0;
#X msg 132 88 1;
#X text 115 108 random;
#X text 185 108 always;
#X text 399 185 now that 0.5 is default \, will be overriden;
#X obj 522 37 inlet;
#X obj 329 91 bang;
#X text 317 238 on;
#X text 387 238 another;
#X obj 163 124 t f f;
#X obj 144 277 bang;
#X obj 145 307 delay;
#X obj 524 70 / 2;
#X text 522 14 we need master for scheduling decisions;
#X obj 331 61 / 100;
#X connect 0 0 9 0;
#X connect 1 0 23 0;
#X connect 3 0 40 0;
#X connect 6 0 21 0;
#X connect 9 0 7 0;
#X connect 9 0 36 0;
#X connect 10 0 9 1;
#X connect 13 0 14 0;
#X connect 14 0 17 0;
#X connect 14 0 18 0;
#X connect 14 1 15 0;
#X connect 14 1 16 0;
#X connect 15 0 22 0;
#X connect 16 0 10 0;
#X connect 17 0 10 0;
#X connect 18 0 22 0;
#X connect 19 0 13 0;
#X connect 20 0 19 1;
#X connect 21 0 7 0;
#X connect 21 0 36 0;
#X connect 22 0 21 1;
#X connect 23 0 26 0;
#X connect 23 0 27 0;
#X connect 23 1 24 0;
#X connect 23 1 25 0;
#X connect 24 0 35 0;
#X connect 25 0 10 0;
#X connect 27 0 20 0;
#X connect 31 0 38 0;
#X connect 32 0 19 0;
#X connect 35 0 22 0;
#X connect 35 1 20 0;
#X connect 36 0 37 0;
#X connect 37 0 19 0;
#X connect 38 0 37 1;
#X connect 40 0 14 1;
#X restore 102 577 pd process-probability-master;
#X obj 136 -87 f \$1;
#X obj 136 -67 default 1000;
#X obj 109 -87 f \$2;
#X obj 109 -54 default 1;
#X msg 388 -111 50;
#X msg 313 -111 1;
#X text 206 144 late;
#X text 157 396 ON;
#X obj 333 351 set-delays add;
#X obj 46 300 r \$0-master-toggle;
#X obj 183 235 s \$0-style-sel;
#X obj 289 190 s \$0-swing-amount-rec;
#X obj 291 211 s \$0-random-amount-rec;
#X obj 393 298 r \$0-random-amount-rec;
#X obj 373 324 r \$0-swing-amount-rec;
#X obj 94 482 r \$0-style-sel;
#X obj 292 470 r \$0-fuzzy-probability;
#X obj 249 542 r \$0-when-probability;
#X floatatom 178 400 5 0 0 0 - - -;
#X obj 45 18 r \$0-load-master-toggle;
#X obj 38 -32 s \$0-load-master-toggle;
#X obj 66 -9 s \$0-load-master-tempo;
#X obj 72 42 r \$0-load-master-tempo;
#X obj 129 190 s \$0-master-tempo;
#X obj 180 300 r \$0-master-tempo;
#X obj 107 213 s \$0-master-toggle;
#X floatatom 333 400 5 0 0 0 - - -;
#X text 289 394 late;
#X obj 437 379 delayable_metro;
#X floatatom 510 401 5 0 0 0 - - -;
#X obj 510 354 set-delays sub;
#X text 463 399 early;
#X obj 106 375 delayable_metro;
#X obj 243 376 delayable_metro;
#X obj 456 -32 s \$0-load-fuzzy-probability;
#X obj 430 -12 s \$0-load-when-probability;
#X obj 313 -58 s \$0-load-when;
#X obj 309 -32 s \$0-load-random-amount;
#X obj 250 -9 s \$0-load-swing-amount;
#X obj 206 -32 s \$0-load-style;
#X obj 215 19 r \$0-load-style;
#X obj 219 40 r \$0-load-swing-amount;
#X obj 526 40 r \$0-load-when;
#X obj 360 40 r \$0-load-when-probability;
#X obj 464 19 r \$0-load-fuzzy-probability;
#X obj 322 19 r \$0-load-random-amount;
#X obj 110 263 s \$0-fuzzy-probability;
#X obj 390 241 s \$0-when-probability;
#X obj 435 190 s \$0-when;
#X obj 187 542 r \$0-when;
#N canvas 612 153 1440 852 process-selected-style-and-create-fuzzy
0;
#X obj -13 46 inlet;
#X obj 95 381 outlet;
#X obj 121 48 inlet;
#X obj 169 48 inlet;
#X obj 226 47 inlet;
#X obj 52 257 spigot;
#X obj 152 257 spigot;
#X obj 252 257 spigot;
#X msg 2 198 0;
#X msg 38 197 1;
#X msg 120 194 0;
#X msg 156 193 1;
#X msg 224 193 0;
#X msg 260 192 1;
#X obj 84 225 tgl 15 0 empty empty empty 17 7 0 10 -262144 -1 -1 1
1;
#X obj 185 225 tgl 15 0 empty empty empty 17 7 0 10 -262144 -1 -1 0
1;
#X obj 285 221 tgl 15 0 empty empty empty 17 7 0 10 -262144 -1 -1 0
1;
#X obj 42 78 select 0 1 2 3;
#X obj 167 82 bng 15 250 50 0 empty empty empty 17 7 0 10 -262144 -1
-1;
#X obj 167 103 bng 15 250 50 0 empty empty empty 17 7 0 10 -262144
-1 -1;
#X obj 166 125 bng 15 250 50 0 empty empty empty 17 7 0 10 -262144
-1 -1;
#X obj 166 147 bng 15 250 50 0 empty empty empty 17 7 0 10 -262144
-1 -1;
#X text 189 80 early;
#X text 187 101 on-beat;
#X text 190 126 late;
#X text 190 147 fuzzy;
#X text 13 259 early;
#X obj 25 112 bang;
#X obj 67 112 bang;
#X text 105 258 on-beat;
#X text 217 258 late;
#X obj 107 112 bang;
#X text 301 256 fuzzy;
#X obj 410 227 import flatspace;
#X obj 389 48 inlet;
#X text 119 24 early;
#X text -13 26 selector;
#X text 167 25 on-beat;
#X text 226 24 late;
#X obj 337 256 moses 0.5;
#X text 405 253 noe that 0.5 is default \, will be overriden;
#X msg 381 286 0;
#X msg 417 285 1;
#X msg 304 287 0;
#X msg 340 286 1;
#X text 317 306 early;
#X text 393 306 late;
#X obj 335 191 spigot;
#X obj 405 171 tgl 15 0 empty empty empty 17 7 0 10 -262144 -1 -1 1
1;
#X msg 405 139 1;
#X obj 333 160 bang;
#X obj 152 350 bang;
#X text 211 337 fuzzy is;
#X text 183 351 decided at every out;
#X text 389 27 probability of when fuzzy (early or late);
#X obj 388 95 / 100;
#X floatatom 511 307 5 0 0 0 - - -;
#X floatatom 561 306 5 0 0 0 - - -;
#X obj 337 227 randomF 1;
#X obj 153 379 delay;
#X obj 663 50 inlet;
#X text 662 29 gt amster clock to adjust fuzzy delay;
#X obj 663 89 / 2;
#X connect 0 0 17 0;
#X connect 2 0 5 0;
#X connect 3 0 6 0;
#X connect 4 0 7 0;
#X connect 5 0 1 0;
#X connect 5 0 51 0;
#X connect 6 0 1 0;
#X connect 7 0 1 0;
#X connect 7 0 51 0;
#X connect 8 0 15 0;
#X connect 8 0 16 0;
#X connect 8 0 48 0;
#X connect 9 0 14 0;
#X connect 10 0 14 0;
#X connect 10 0 16 0;
#X connect 10 0 48 0;
#X connect 11 0 15 0;
#X connect 12 0 15 0;
#X connect 12 0 14 0;
#X connect 12 0 48 0;
#X connect 13 0 16 0;
#X connect 14 0 5 1;
#X connect 15 0 6 1;
#X connect 16 0 7 1;
#X connect 17 0 18 0;
#X connect 17 0 27 0;
#X connect 17 1 19 0;
#X connect 17 1 28 0;
#X connect 17 2 20 0;
#X connect 17 2 31 0;
#X connect 17 3 21 0;
#X connect 17 3 49 0;
#X connect 27 0 8 0;
#X connect 27 0 9 0;
#X connect 28 0 10 0;
#X connect 28 0 11 0;
#X connect 31 0 12 0;
#X connect 31 0 13 0;
#X connect 34 0 55 0;
#X connect 39 0 43 0;
#X connect 39 0 44 0;
#X connect 39 1 41 0;
#X connect 39 1 42 0;
#X connect 41 0 14 0;
#X connect 41 0 15 0;
#X connect 42 0 16 0;
#X connect 43 0 15 0;
#X connect 43 0 16 0;
#X connect 44 0 14 0;
#X connect 47 0 58 0;
#X connect 48 0 47 1;
#X connect 49 0 48 0;
#X connect 49 0 14 0;
#X connect 50 0 47 0;
#X connect 51 0 59 0;
#X connect 55 0 57 0;
#X connect 55 0 39 1;
#X connect 58 0 39 0;
#X connect 58 0 56 0;
#X connect 59 0 47 0;
#X connect 60 0 62 0;
#X connect 62 0 59 1;
#X restore 94 514 pd process-selected-style-and-create-fuzzy;
#X obj 353 446 r \$0-master-tempo;
#X obj 305 563 r \$0-master-tempo;
#X obj 314 611 outlet;
#X text 156 613 swing'd beat;
#X text 360 611 reference beat just in case;
#X connect 0 0 63 0;
#X connect 2 0 61 0;
#X connect 3 0 4 0;
#X connect 4 0 40 0;
#X connect 4 1 38 0;
#X connect 5 0 38 0;
#X connect 6 0 40 0;
#X connect 6 0 58 0;
#X connect 7 0 48 0;
#X connect 13 0 49 0;
#X connect 14 0 86 0;
#X connect 18 0 50 0;
#X connect 20 0 85 0;
#X connect 25 0 84 0;
#X connect 28 0 29 0;
#X connect 28 0 30 0;
#X connect 28 0 31 0;
#X connect 28 0 43 0;
#X connect 28 0 32 0;
#X connect 28 0 42 0;
#X connect 29 0 77 0;
#X connect 30 0 76 0;
#X connect 31 0 75 0;
#X connect 32 0 73 0;
#X connect 37 0 1 0;
#X connect 38 0 39 0;
#X connect 39 0 59 0;
#X connect 40 0 41 0;
#X connect 41 0 58 0;
#X connect 42 0 72 0;
#X connect 43 0 74 0;
#X connect 46 0 64 0;
#X connect 46 0 71 2;
#X connect 47 0 66 0;
#X connect 47 0 70 0;
#X connect 47 0 71 0;
#X connect 51 0 46 3;
#X connect 51 0 68 3;
#X connect 52 0 46 2;
#X connect 52 0 68 2;
#X connect 53 0 88 0;
#X connect 54 0 88 4;
#X connect 55 0 37 3;
#X connect 57 0 0 0;
#X connect 60 0 2 0;
#X connect 62 0 56 0;
#X connect 62 0 46 1;
#X connect 62 0 68 1;
#X connect 62 0 66 1;
#X connect 62 0 70 1;
#X connect 62 0 70 2;
#X connect 62 0 71 1;
#X connect 66 0 88 1;
#X connect 68 0 66 2;
#X connect 68 0 67 0;
#X connect 70 0 46 0;
#X connect 70 0 68 0;
#X connect 70 0 88 2;
#X connect 70 0 37 0;
#X connect 70 0 91 0;
#X connect 71 0 88 3;
#X connect 78 0 7 0;
#X connect 79 0 13 0;
#X connect 80 0 14 0;
#X connect 81 0 20 0;
#X connect 82 0 25 0;
#X connect 83 0 18 0;
#X connect 87 0 37 2;
#X connect 88 0 37 1;
#X connect 89 0 88 5;
#X connect 90 0 37 4;
#X coords 0 -1 1 1 400 80 2 100 100;
