#N canvas 752 27 1440 852 10;
#X declare -lib flatspace;
#X declare -lib iemlib;
#X declare -lib flatspace;
#X obj 103 123 tgl 13 0 empty empty empty 0 -6 0 8 -233017 -1 -1 1
1;
#X obj 88 569 outlet;
#X obj 125 123 nbx 4 13 1 1e+37 0 0 empty empty empty 0 -6 0 10 -233017
-1 -1 2000 256;
#X obj 79 326 metro;
#X text 35 683 by jmmmp \, that section is credited to the orgnal author
and remains with the orginal license.;
#X text 36 669 based on the awesome [metrum] - Metro with GUI;
#X obj 160 411 metro;
#X obj 163 354 +;
#X obj 199 319 metro;
#X text 293 326 ahead of beat;
#X text 17 354 on beat;
#X text 246 415 ritardando after the beat;
#X obj 244 288 -;
#X obj 180 117 vradio 15 1 0 4 empty empty empty 0 -8 0 10 -262144
-1 -1 0;
#X text 203 115 early;
#X text 203 131 on-the-beat;
#X text 203 145 ahead;
#X text 203 161 fuzzy;
#X text 179 99 style:;
#X text 284 99 swing amount:;
#X floatatom 286 117 5 0 0 0 - - -;
#X obj 386 116 vradio 15 1 0 2 empty empty empty 0 -8 0 10 -262144
-1 -1 0;
#X text 384 99 when:;
#X text 408 129 always;
#X floatatom 287 161 5 0 0 0 - - -;
#X text 284 142 random amount:;
#X floatatom 387 162 5 0 0 0 - - -;
#X text 384 144 probability:;
#X text 103 102 tempo (ms):;
#N canvas 612 153 1440 852 process-selected-style 0;
#X obj -13 46 inlet;
#X obj 95 381 outlet;
#X obj 121 48 inlet;
#X obj 169 48 inlet;
#X obj 226 47 inlet;
#X obj 52 257 spigot;
#X obj 152 257 spigot;
#X obj 252 257 spigot;
#X msg 2 198 0;
#X msg 38 197 1;
#X msg 120 194 0;
#X msg 156 193 1;
#X msg 224 193 0;
#X msg 260 192 1;
#X obj 84 225 tgl 15 0 empty empty empty 17 7 0 10 -262144 -1 -1 1
1;
#X obj 185 225 tgl 15 0 empty empty empty 17 7 0 10 -262144 -1 -1 0
1;
#X obj 283 230 tgl 15 0 empty empty empty 17 7 0 10 -262144 -1 -1 0
1;
#X obj 42 78 select 0 1 2 3;
#X obj 167 82 bng 15 250 50 0 empty empty empty 17 7 0 10 -262144 -1
-1;
#X obj 167 103 bng 15 250 50 0 empty empty empty 17 7 0 10 -262144
-1 -1;
#X obj 166 125 bng 15 250 50 0 empty empty empty 17 7 0 10 -262144
-1 -1;
#X obj 166 147 bng 15 250 50 0 empty empty empty 17 7 0 10 -262144
-1 -1;
#X text 189 80 early;
#X text 187 101 on-beat;
#X text 190 126 late;
#X text 190 147 fuzzy;
#X text 13 259 early;
#X obj 25 112 bang;
#X obj 67 112 bang;
#X text 105 258 on-beat;
#X text 217 258 late;
#X obj 107 112 bang;
#X text 301 256 fuzzy;
#X obj 410 227 import flatspace;
#X obj 337 227 randomF 1;
#X obj 389 48 inlet;
#X text 119 24 early;
#X text -13 26 selector;
#X text 167 25 on-beat;
#X text 226 24 late;
#X text 389 27 probability;
#X obj 337 256 moses 0.5;
#X text 405 253 noe that 0.5 is default \, will be overriden;
#X msg 381 286 0;
#X msg 417 285 1;
#X msg 304 287 0;
#X msg 340 286 1;
#X text 317 306 early;
#X text 393 306 late;
#X obj 335 191 spigot;
#X obj 8 311 print early;
#X obj 99 312 print on-beat;
#X obj 209 309 print late;
#X obj 405 171 tgl 15 0 empty empty empty 17 7 0 10 -262144 -1 -1 0
1;
#X msg 405 139 1;
#X obj 521 49 inlet;
#X text 521 26 decision clock (hz/2);
#X floatatom 558 109 5 0 0 0 - - -;
#X obj 538 142 select 0 1;
#X floatatom 597 109 5 0 0 0 - - -;
#X obj 333 160 bang;
#X obj 404 91 / 100;
#X obj 544 79 count 2;
#X connect 0 0 17 0;
#X connect 2 0 5 0;
#X connect 3 0 6 0;
#X connect 4 0 7 0;
#X connect 5 0 1 0;
#X connect 5 0 50 0;
#X connect 6 0 1 0;
#X connect 6 0 51 0;
#X connect 7 0 1 0;
#X connect 7 0 52 0;
#X connect 8 0 15 0;
#X connect 8 0 16 0;
#X connect 8 0 53 0;
#X connect 9 0 14 0;
#X connect 10 0 14 0;
#X connect 10 0 16 0;
#X connect 10 0 53 0;
#X connect 11 0 15 0;
#X connect 12 0 15 0;
#X connect 12 0 14 0;
#X connect 12 0 53 0;
#X connect 13 0 16 0;
#X connect 14 0 5 1;
#X connect 15 0 6 1;
#X connect 16 0 7 1;
#X connect 17 0 18 0;
#X connect 17 0 27 0;
#X connect 17 1 19 0;
#X connect 17 1 28 0;
#X connect 17 2 20 0;
#X connect 17 2 31 0;
#X connect 17 3 21 0;
#X connect 17 3 54 0;
#X connect 27 0 8 0;
#X connect 27 0 9 0;
#X connect 28 0 10 0;
#X connect 28 0 11 0;
#X connect 31 0 12 0;
#X connect 31 0 13 0;
#X connect 34 0 41 0;
#X connect 34 0 59 0;
#X connect 35 0 61 0;
#X connect 41 0 45 0;
#X connect 41 0 46 0;
#X connect 41 1 43 0;
#X connect 41 1 44 0;
#X connect 43 0 14 0;
#X connect 43 0 15 0;
#X connect 44 0 16 0;
#X connect 45 0 15 0;
#X connect 45 0 16 0;
#X connect 46 0 14 0;
#X connect 49 0 34 0;
#X connect 53 0 49 1;
#X connect 54 0 53 0;
#X connect 55 0 62 0;
#X connect 58 0 60 0;
#X connect 60 0 49 0;
#X connect 61 0 41 1;
#X connect 62 0 57 0;
#X connect 62 0 58 0;
#X restore 80 456 pd process-selected-style;
#X obj 541 143 default 50;
#X obj 541 94 loadbang;
#X obj 541 119 f \$1;
#X floatatom 555 171 5 0 0 0 - - -;
#X obj 539 53 import iemlib;
#X text 633 51 for the amazing default;
#N canvas 316 146 494 344 META 0;
#X text 12 185 HELP_PATCH_AUTHORS "pd meta" information added by Jonathan
Wilkes for Pd version 0.42.;
#X text 12 25 LICENSE GPL v2;
#X text 12 165 AUTHOR Olaf Matthes <olaf.matthes@gmx.de>;
#X text 12 85 INLET_1 float;
#X text 12 125 OUTLET_1 float;
#X text 12 105 OUTLET_0 float;
#X text 12 5 KEYWORDS control analysis;
#X text 12 45 DESCRIPTION beat tracker;
#X text 12 65 INLET_0 float reset print;
#X text 12 145 OUTLET_2 bang;
#X restore 1188 751 pd META;
#X obj 236 214 change;
#X obj 237 251 bang;
#X floatatom 248 325 5 0 0 0 - - -;
#X floatatom 207 412 5 0 0 0 - - -;
#X floatatom 70 353 5 0 0 0 - - -;
#X floatatom 107 162 5 0 0 0 - - -;
#X text 104 144 probability:;
#X text 104 135 fuzzy;
#X obj 202 38 loadbang;
#X msg 201 64 0;
#X msg 238 63 20;
#X msg 274 63 10;
#X msg 309 62 1;
#X msg 347 62 60;
#X text 461 145 (%);
#X text 329 118 (ms);
#X text 332 159 (ms);
#X text 146 161 (%);
#N canvas 502 465 1440 852 process-probability-master 0;
#X obj 59 35 inlet;
#X obj 134 35 inlet;
#X text 134 13 on/off toggle;
#X obj 329 36 inlet;
#X text 329 14 probability;
#X text 57 12 input beat;
#X obj -9 34 inlet;
#X obj 71 320 outlet;
#X text -11 11 on-beat;
#X obj 81 161 spigot;
#X obj 116 128 tgl 15 0 empty empty empty 17 7 0 10 -262144 -1 -1 1
1;
#X text 295 188 fuzzy;
#X obj 404 159 import flatspace;
#X obj 331 159 randomF 1;
#X obj 331 188 moses 0.5;
#X msg 375 218 0;
#X msg 411 217 1;
#X msg 298 219 0;
#X msg 334 218 1;
#X obj 329 123 spigot;
#X obj 399 103 tgl 15 0 empty empty empty 17 7 0 10 -262144 -1 -1 1
1;
#X obj -5 160 spigot;
#X obj 30 127 tgl 15 0 empty empty empty 17 7 0 10 -262144 -1 -1 0
1;
#X obj 120 60 select 0 1;
#X msg 169 88 0;
#X msg 209 87 1;
#X msg 96 89 0;
#X msg 132 88 1;
#X text 115 108 random;
#X text 185 108 always;
#X text 399 185 now that 0.5 is default \, will be overriden;
#X obj 522 37 inlet;
#X text 522 14 decision clock (hz/2);
#X floatatom 537 92 5 0 0 0 - - -;
#X obj 523 62 count 2;
#X obj 517 125 select 0 1;
#X floatatom 573 93 5 0 0 0 - - -;
#X obj 329 74 bang;
#X text 317 238 on;
#X text 387 238 another;
#X obj 163 124 t f f;
#X obj 382 57 / 100;
#X connect 0 0 9 0;
#X connect 1 0 23 0;
#X connect 3 0 41 0;
#X connect 6 0 21 0;
#X connect 9 0 7 0;
#X connect 10 0 9 1;
#X connect 13 0 14 0;
#X connect 13 0 36 0;
#X connect 14 0 17 0;
#X connect 14 0 18 0;
#X connect 14 1 15 0;
#X connect 14 1 16 0;
#X connect 15 0 10 0;
#X connect 16 0 22 0;
#X connect 17 0 22 0;
#X connect 18 0 10 0;
#X connect 19 0 13 0;
#X connect 20 0 19 1;
#X connect 21 0 7 0;
#X connect 22 0 21 1;
#X connect 23 0 26 0;
#X connect 23 0 27 0;
#X connect 23 1 24 0;
#X connect 23 1 25 0;
#X connect 24 0 40 0;
#X connect 25 0 10 0;
#X connect 27 0 20 0;
#X connect 31 0 34 0;
#X connect 34 0 33 0;
#X connect 34 0 35 0;
#X connect 35 0 37 0;
#X connect 37 0 19 0;
#X connect 40 0 22 0;
#X connect 40 1 20 0;
#X connect 41 0 14 1;
#X restore 77 495 pd process-probability-master;
#X obj 295 205 random;
#X obj 274 255 +;
#X floatatom 306 254 5 0 0 0 - - -;
#X obj 359 205 t b b b;
#X obj 194 382 +;
#X text 346 257 randomized amount;
#X obj 7 327 metro;
#X obj 11 258 / 2;
#X text 40 281 the half clock for decisions;
#X floatatom 3 281 5 0 0 0 - - -;
#X obj 622 92 loadbang;
#X floatatom 636 169 5 0 0 0 - - -;
#X obj 622 141 default 1;
#X obj 622 117 f \$2;
#X floatatom 505 330 5 0 0 0 - - -;
#X obj 491 300 count 2;
#X obj 485 363 select 0 1;
#X obj 482 392 bang;
#X msg 381 62 50;
#X text 408 113 random;
#X obj 286 569 outlet;
#X text 86 592 the swinged beat;
#X text 286 589 the reference beat (in case you need it);
#X msg 159 65 2000;
#X obj 44 18 inlet;
#X msg 117 65 50;
#X connect 0 0 3 0;
#X connect 0 0 6 0;
#X connect 0 0 8 0;
#X connect 0 0 62 0;
#X connect 2 0 3 1;
#X connect 2 0 7 0;
#X connect 2 0 12 0;
#X connect 2 0 41 0;
#X connect 2 0 63 0;
#X connect 3 0 29 2;
#X connect 3 0 55 0;
#X connect 3 0 76 0;
#X connect 6 0 29 3;
#X connect 7 0 60 0;
#X connect 8 0 29 1;
#X connect 12 0 8 1;
#X connect 12 0 39 0;
#X connect 13 0 29 0;
#X connect 20 0 7 1;
#X connect 20 0 37 0;
#X connect 20 0 57 0;
#X connect 21 0 55 2;
#X connect 24 0 37 0;
#X connect 24 0 56 1;
#X connect 26 0 55 3;
#X connect 29 0 55 1;
#X connect 30 0 33 0;
#X connect 30 0 2 0;
#X connect 31 0 32 0;
#X connect 32 0 30 0;
#X connect 37 0 38 0;
#X connect 42 0 29 4;
#X connect 45 0 46 0;
#X connect 45 0 47 0;
#X connect 45 0 48 0;
#X connect 45 0 49 0;
#X connect 45 0 50 0;
#X connect 45 0 79 0;
#X connect 45 0 81 0;
#X connect 46 0 13 0;
#X connect 47 0 20 0;
#X connect 48 0 24 0;
#X connect 49 0 21 0;
#X connect 50 0 26 0;
#X connect 55 0 1 0;
#X connect 56 0 57 1;
#X connect 56 0 58 0;
#X connect 56 0 60 1;
#X connect 57 0 12 1;
#X connect 59 0 12 0;
#X connect 59 0 7 0;
#X connect 59 1 20 0;
#X connect 59 2 56 0;
#X connect 60 0 6 1;
#X connect 60 0 40 0;
#X connect 62 0 29 5;
#X connect 62 0 55 4;
#X connect 62 0 71 0;
#X connect 63 0 62 1;
#X connect 63 0 65 0;
#X connect 66 0 69 0;
#X connect 68 0 67 0;
#X connect 68 0 0 0;
#X connect 69 0 68 0;
#X connect 71 0 70 0;
#X connect 71 0 72 0;
#X connect 72 0 73 0;
#X connect 73 0 59 0;
#X connect 74 0 42 0;
#X connect 79 0 2 0;
#X connect 80 0 0 0;
#X connect 81 0 42 0;
#X coords 0 -1 1 1 400 80 2 100 100;
