#N canvas 170 22 1440 852 10;
#X declare -lib cyclone;
#X declare -lib jmmmp;
#X declare -lib cyclone;
#N canvas 0 22 1440 852 imports 0;
#X obj 41 25 import cyclone;
#X obj 39 55 import jmmmp;
#X msg 172 62 \; pd dsp 1;
#X obj 172 28 loadbang;
#X connect 3 0 2 0;
#X restore 524 668 pd imports;
#X obj 207 95 butt 30 14;
#X obj 350 94 butt 30 14;
#X obj 646 49 cnv 20 30 30 empty empty HIGH -32 14 0 14 -260818 -33289
0;
#X obj 646 80 cnv 20 30 30 empty empty LOW -25 14 0 14 -90881 -33289
0;
#X text -100 32 Menu (pick a component);
#X text 540 30 legend of logic levels:;
#X obj -89 98 butt 30 14;
#X obj -90 272 and;
#N canvas 539 238 450 300 not 0;
#X obj -49 -65 inlet;
#X obj -49 35 outlet;
#X obj 136 106 tgl 15 0 empty empty empty 17 7 0 10 -262144 -1 -1 0
1;
#X text 139 124 |;
#X obj 136 140 tgl 15 0 empty empty empty 17 7 0 10 -262144 -1 -1 0
1;
#X text 157 139 out;
#X text 118 104 in;
#X text 106 139 NOT;
#X obj 49 -16 select 0 1;
#X msg -39 2 1;
#X msg -7 3 0;
#X connect 0 0 2 0;
#X connect 0 0 8 0;
#X connect 8 0 9 0;
#X connect 8 1 10 0;
#X connect 9 0 1 0;
#X connect 9 0 4 0;
#X connect 10 0 1 0;
#X connect 10 0 4 0;
#X coords 0 -1 1 1 85 60 2 100 100;
#X restore -89 189 pd not;
#X obj 373 188 and;
#N canvas 558 324 450 300 or 0;
#X obj 45 100 unsig~;
#X obj 45 28 inlet;
#X obj 94 29 inlet;
#X obj 45 128 outlet;
#X obj 133 110 tgl 15 0 empty empty empty 17 7 0 10 -262144 -1 -1 0
1;
#X obj 184 110 tgl 15 0 empty empty empty 17 7 0 10 -262144 -1 -1 0
1;
#X text 186 126 |;
#X text 158 138 |;
#X obj 155 154 tgl 15 0 empty empty empty 17 7 0 10 -262144 -1 -1 0
1;
#X text 176 153 out;
#X text 135 126 |;
#X text 140 130 --------;
#X text 205 109 2;
#X text 119 108 1;
#X obj 45 72 bitor~;
#X text 105 153 OR;
#X connect 0 0 3 0;
#X connect 0 0 8 0;
#X connect 1 0 4 0;
#X connect 1 0 14 0;
#X connect 2 0 5 0;
#X connect 2 0 14 1;
#X connect 14 0 0 0;
#X coords 0 -1 1 1 120 80 2 100 100;
#X restore -91 374 pd or;
#X obj -89 699 mech_switch;
#X text -92 674 SWITCHES:;
#X text -89 158 LOGIC GATES;
#X text -91 76 INPUT/OUTPUT;
#X obj -90 469 xor;
#X obj -90 578 nand;
#X obj 207 170 xor;
#X obj 259 855 butt 30 14;
#X text 215 70 A;
#X text 357 67 B;
#X obj 206 302 butt 30 14;
#X obj 349 301 butt 30 14;
#X obj 364 423 and;
#X obj 198 405 xor;
#X obj 197 537 butt 30 14;
#X obj 407 536 butt 30 14;
#X obj 511 94 butt 30 14;
#X text 518 67 Cin;
#X text 184 31 Binary Adder -- full adder;
#X text 207 336 A+B;
#X text 349 333 A.B;
#X text 198 571 (A+B)+Cin;
#X text 407 568 (A+B).Cin;
#N canvas 558 324 450 300 or 0;
#X obj 45 100 unsig~;
#X obj 45 28 inlet;
#X obj 94 29 inlet;
#X obj 45 128 outlet;
#X obj 133 110 tgl 15 0 empty empty empty 17 7 0 10 -262144 -1 -1 0
1;
#X obj 184 110 tgl 15 0 empty empty empty 17 7 0 10 -262144 -1 -1 0
1;
#X text 186 126 |;
#X text 158 138 |;
#X obj 155 154 tgl 15 0 empty empty empty 17 7 0 10 -262144 -1 -1 0
1;
#X text 176 153 out;
#X text 135 126 |;
#X text 140 130 --------;
#X text 205 109 2;
#X text 119 108 1;
#X obj 45 72 bitor~;
#X text 105 153 OR;
#X connect 0 0 3 0;
#X connect 0 0 8 0;
#X connect 1 0 4 0;
#X connect 1 0 14 0;
#X connect 2 0 5 0;
#X connect 2 0 14 1;
#X connect 14 0 0 0;
#X coords 0 -1 1 1 120 80 2 100 100;
#X restore 349 628 pd or;
#X obj 197 727 butt 30 14;
#X obj 147 728 butt 30 14;
#X text 196 761 SUM;
#X text 145 760 Carry;
#N canvas 0 22 1440 852 test-but 0;
#X obj 123 114 comment 0 20 helvetica ? 0 0 0 0 1;
#X obj 180 280 iem_image /Users/pedro/Dropbox/2.teaching/musicFormatsEvolution19802010.gif
0 0 from_image empty;
#X msg 425 62 open \$1;
#X obj 425 39 openpanel;
#X obj 406 40 bng 15 250 50 0 empty empty empty 0 -6 0 8 -262144 -1
-1;
#X msg 467 117 open go_stop.gif;
#X msg 498 157 open pd.gif;
#X msg 517 176 open xxx.gif;
#X obj 405 598 unpack;
#X floatatom 405 624 5 0 0 0 - - -;
#X floatatom 444 623 5 0 0 0 - - -;
#X msg 214 70 pos 200 260;
#X msg 313 69 pos 180 280;
#X msg 216 101 delta 1 1;
#X msg 313 103 delta -1 -1;
#X msg 215 173 receive to_image;
#X text 227 606 IEM KUG;
#X text 206 594 musil;
#X text 241 594 @;
#X text 248 594 iem.at;
#X text 210 616 Graz \, Austria;
#X text 531 241 |;
#X text 531 252 |;
#X text 601 241 |;
#X text 601 252 |;
#X text 531 247 |iem_image|;
#X text 534 250 __________;
#X text 534 233 __________;
#X text 163 20 iem_image;
#X text 257 23 gif only \, sorry;
#X msg 216 140 send from_image;
#X msg 367 159 clear;
#X text 487 621 size in pixel after opening a gif;
#X msg 480 136 open mp3_play.gif;
#X text 162 583 (c) Thomas Musil 2000 - 2009;
#X msg 456 97 open farewell.gif;
#X connect 1 0 8 0;
#X connect 2 0 1 0;
#X connect 3 0 2 0;
#X connect 4 0 3 0;
#X connect 5 0 1 0;
#X connect 6 0 1 0;
#X connect 7 0 1 0;
#X connect 8 0 9 0;
#X connect 8 1 10 0;
#X connect 11 0 1 0;
#X connect 12 0 1 0;
#X connect 13 0 1 0;
#X connect 14 0 1 0;
#X connect 15 0 1 0;
#X connect 30 0 1 0;
#X connect 31 0 1 0;
#X connect 33 0 1 0;
#X connect 35 0 1 0;
#X coords 0 -1 1 1 700 700 2 100 100;
#X restore 794 65 pd test-but;
#X obj 37 37 com;
#X obj 639 188 comment 0 10 helvetica ? 0 0 0 0 comment;
#X obj 745 163 import cyclone;
#X obj 620 424 comment 0 10 helvetica ? 0 0 0 0 comment;
#X obj 671 574 nha 0 20;
#X connect 1 0 18 0;
#X connect 1 0 10 0;
#X connect 2 0 18 1;
#X connect 2 0 10 1;
#X connect 10 0 23 0;
#X connect 18 0 22 0;
#X connect 22 0 25 0;
#X connect 22 0 24 0;
#X connect 23 0 35 0;
#X connect 24 0 27 0;
#X connect 25 0 26 0;
#X connect 26 0 36 0;
#X connect 27 0 35 1;
#X connect 28 0 24 1;
#X connect 28 0 25 1;
#X connect 35 0 37 0;
