#N canvas 0 22 1440 800 10;
#X obj 106 105 bng 15 250 50 0 empty empty empty 17 7 0 10 -204786
-1 -1;
#X obj 55 179 tof/folderpanel;
#X obj 55 244 symbol;
#X text 125 104 save animations to folder;
#X obj 106 125 bng 15 250 50 0 empty empty empty 17 7 0 10 -262130
-1 -1;
#X text 125 124 load animations from folder;
#X obj 103 301 s global-animation-name;
#X obj 67 213 r get-name;
#X obj 137 203 print SAVE_FOLDER;
#X obj 33 302 s save-all;
#X obj 77 268 t b s;
#X text 153 179 save to this folder;
#X obj 285 179 tof/folderpanel;
#X obj 285 244 symbol;
#X obj 333 301 s global-animation-name;
#X obj 297 213 r get-name;
#X obj 307 268 t b s;
#X obj 258 302 s load-all;
#X obj 367 203 print LOAD_FOLDER;
#X text 383 179 load to this folder;
#X connect 0 0 1 0;
#X connect 1 0 2 0;
#X connect 1 0 8 0;
#X connect 1 0 10 0;
#X connect 2 0 10 0;
#X connect 4 0 12 0;
#X connect 7 0 2 0;
#X connect 10 0 9 0;
#X connect 10 1 6 0;
#X connect 12 0 13 0;
#X connect 12 0 16 0;
#X connect 12 0 18 0;
#X connect 13 0 16 0;
#X connect 15 0 13 0;
#X connect 16 0 17 0;
#X connect 16 1 14 0;
#X coords 0 -1 1 1 200 60 2 100 100;
