#N canvas 249 22 1200 852 10;
#X declare -lib flatgui;
#N canvas 0 22 1440 852 arduino-control 0;
#X obj 12 482 r comctl;
#X msg 237 204 close;
#X text 239 353 Close Serial port;
#X text 268 374 Open serial port by number;
#X msg 145 399 help;
#X msg 143 368 info;
#X msg 236 148 devices;
#X text 320 415 print available devices (wait for it...);
#X obj 27 353 sel 0;
#X floatatom 81 376 4 0 0 0 ascii - -;
#X msg 242 396 open 0;
#N canvas 307 43 789 479 bauds 0;
#X msg 319 274 baud 57600;
#X msg 357 312 baud 230400;
#X msg 338 293 baud 115200;
#X msg 300 255 baud 38400;
#X msg 281 236 baud 19200;
#X msg 262 217 baud 9600;
#X msg 243 198 baud 4800;
#X msg 224 179 baud 2400;
#X obj 431 403 s comctl;
#X msg 205 160 baud 1800;
#X msg 186 141 baud 1200;
#X msg 167 122 baud 600;
#X msg 148 103 baud 300;
#X msg 129 84 baud 200;
#X msg 91 46 baud 134;
#X msg 72 27 baud 110;
#X msg 53 8 baud 75;
#X msg 34 -11 baud 50;
#X msg 15 -30 baud 0;
#X msg 110 65 baud 150;
#X text 368 255 this is a special baud rate that can be configured
;
#X text 12 -48 standard baud rates for linux:;
#X text 64 -31 0 deasserts control lines and resets the serial port
;
#X text 435 312 won't work with standard setup. See setserial;
#X msg 431 231 baud \$1;
#X text 518 269 on-the-fly with setserial:;
#X text 519 298 gives 14400 baud instead of 38400;
#X text 517 284 "setserial /dev/ttyS0 spd_cust divisor 8";
#X msg 419 163 115200;
#X floatatom 392 104 7 1 115200 1 divisor - -;
#X obj 431 192 / 1;
#X obj 392 123 sel 0;
#X floatatom 431 212 7 0 0 0 - - -;
#X text 482 103 (1-115200);
#X obj 419 143 t b f;
#X text 390 86 On Windows some other baud rates might work:;
#X connect 0 0 8 0;
#X connect 1 0 8 0;
#X connect 2 0 8 0;
#X connect 3 0 8 0;
#X connect 4 0 8 0;
#X connect 5 0 8 0;
#X connect 6 0 8 0;
#X connect 7 0 8 0;
#X connect 9 0 8 0;
#X connect 10 0 8 0;
#X connect 11 0 8 0;
#X connect 12 0 8 0;
#X connect 13 0 8 0;
#X connect 14 0 8 0;
#X connect 15 0 8 0;
#X connect 16 0 8 0;
#X connect 17 0 8 0;
#X connect 18 0 8 0;
#X connect 19 0 8 0;
#X connect 24 0 8 0;
#X connect 28 0 30 0;
#X connect 29 0 31 0;
#X connect 30 0 32 0;
#X connect 31 1 34 0;
#X connect 32 0 24 0;
#X connect 34 0 28 0;
#X connect 34 1 30 1;
#X restore 268 467 pd bauds;
#X msg 100 399 13;
#X msg 283 437 ports;
#X text 329 436 list available ports on right outlet;
#X text 62 399 <CR>:;
#X text -6 324 or from the terminal:;
#X obj 12 508 comport 9 115200;
#X obj 17 532 print;
#X obj 201 468 s comctl;
#X obj 4 442 spigot;
#X obj 29 156 tgl 15 0 empty empty empty 17 7 0 10 -262144 -1 -1 0
1;
#X obj -70 426 r arduino;
#X obj -67 480 spigot;
#X obj 28 135 tgl 15 0 empty empty empty 17 7 0 10 -204786 -1 -1 1
1;
#X obj -56 381 loadbang;
#X msg -56 401 1;
#X obj 148 308 key;
#X text 47 135 enable/disable Arduino Send;
#X text 50 156 enable/disable keystrokes;
#X text 27 26 do this in order;
#X text 26 43 1 list devices here:;
#X obj 161 42 bng 15 250 50 0 empty empty empty 17 7 0 10 -262144 -1
-1;
#X text 26 59 2 input port number here:;
#X msg 318 174 open \$1;
#X text 27 112 (to close \, press here: );
#X obj 180 113 bng 15 250 50 0 empty empty empty 17 7 0 10 -262144
-1 -1;
#X obj 33 94 hradio 15 1 0 9 empty empty 1__2__3__4__5__6__7__8__9
0 -8 0 8 -262144 -1 -1 0;
#X floatatom 174 86 5 0 0 0 - - -;
#X obj 244 39 + 1;
#X text 172 70 PORT;
#X connect 0 0 17 0;
#X connect 1 0 19 0;
#X connect 4 0 17 0;
#X connect 5 0 17 0;
#X connect 6 0 19 0;
#X connect 8 1 9 0;
#X connect 8 1 20 0;
#X connect 10 0 19 0;
#X connect 12 0 17 0;
#X connect 13 0 19 0;
#X connect 20 0 17 0;
#X connect 21 0 20 1;
#X connect 22 0 23 0;
#X connect 23 0 17 0;
#X connect 23 0 18 0;
#X connect 24 0 23 1;
#X connect 25 0 26 0;
#X connect 26 0 24 0;
#X connect 27 0 8 0;
#X connect 32 0 6 0;
#X connect 34 0 19 0;
#X connect 36 0 1 0;
#X connect 37 0 39 0;
#X connect 38 0 34 0;
#X connect 39 0 38 0;
#X coords 0 -1 1 1 200 160 2 20 20;
#X restore 417 -125 pd arduino-control;
#X text 416 -140 ARDUINO CONTROL;
#N canvas 49 42 1440 852 playControl 0;
#X obj 624 155 + 1;
#X obj 567 156 float;
#X msg 565 76 bang;
#X msg 645 113 0;
#X msg 600 98 stop;
#X obj 567 130 metro 100;
#X obj 497 153 + 1;
#X obj 440 154 float;
#X msg 438 74 bang;
#X msg 517 125 0;
#X text 484 56 reset;
#X msg 481 73 stop;
#X obj 440 128 metro 100;
#X text 559 12 one shot;
#X text 433 51 looper;
#X obj 567 223 s index;
#X obj 441 221 s index;
#X obj 515 97 r speed;
#X text 677 38 speed;
#X floatatom 677 233 5 0 0 0 - - -;
#X obj 674 185 int;
#X obj 677 255 s speed;
#X obj 516 162 r size;
#X msg 715 202 50;
#X obj 716 178 loadbang;
#X obj 109 107 tgl 15 0 empty empty empty 17 7 0 10 -204786 -1 -1 1
1;
#X obj 150 141 hsl 100 15 500 10 0 0 empty empty speed_(in_ms) -2 -8
0 10 -262130 -1 -1 9092 1;
#X floatatom 103 141 5 0 0 0 - - -;
#X floatatom 258 141 5 0 0 0 - - -;
#X floatatom 190 163 5 0 0 0 - - -;
#X text 102 163 current speed:;
#X msg 750 203 10;
#X msg 781 200 500;
#X obj 162 108 bng 15 250 50 0 empty empty empty 17 7 0 10 -261682
-1 -1;
#X floatatom 514 261 5 0 0 0 - - -;
#X obj 440 189 moses 200;
#X obj 567 190 moses 200;
#X floatatom 105 181 5 0 0 0 - - -;
#X text 141 182 sequence lenght (samples);
#X obj 100 219 s size;
#X obj 564 38 trigger b b;
#X msg 111 68 0;
#X obj 423 99 trigger b b;
#X text 130 107 loop;
#X obj 160 248 s play-on;
#X msg 175 215 1;
#X msg 207 214 0;
#X obj 15 20 r play-start;
#X obj 100 21 r play-stop;
#X msg 80 68 1;
#X obj 182 21 r play-one;
#X text 184 105 1shot;
#X obj 311 130 s record;
#X text 246 163 comment;
#X connect 0 0 1 1;
#X connect 1 0 0 0;
#X connect 1 0 36 0;
#X connect 2 0 5 0;
#X connect 3 0 1 1;
#X connect 4 0 5 0;
#X connect 4 0 46 0;
#X connect 5 0 1 0;
#X connect 6 0 7 1;
#X connect 7 0 6 0;
#X connect 7 0 35 0;
#X connect 8 0 42 0;
#X connect 9 0 7 1;
#X connect 11 0 12 0;
#X connect 12 0 7 0;
#X connect 17 0 12 1;
#X connect 17 0 5 1;
#X connect 19 0 21 0;
#X connect 19 0 29 0;
#X connect 20 0 19 0;
#X connect 22 0 35 1;
#X connect 22 0 36 1;
#X connect 23 0 26 0;
#X connect 24 0 23 0;
#X connect 24 0 31 0;
#X connect 24 0 32 0;
#X connect 25 0 12 0;
#X connect 25 0 44 0;
#X connect 26 0 20 0;
#X connect 31 0 27 0;
#X connect 32 0 28 0;
#X connect 33 0 40 0;
#X connect 33 0 45 0;
#X connect 35 0 16 0;
#X connect 35 0 34 0;
#X connect 35 1 9 0;
#X connect 36 0 15 0;
#X connect 36 1 4 0;
#X connect 36 1 9 0;
#X connect 37 0 39 0;
#X connect 40 0 2 0;
#X connect 40 1 3 0;
#X connect 40 1 41 0;
#X connect 40 1 11 0;
#X connect 41 0 25 0;
#X connect 42 0 12 0;
#X connect 42 1 9 0;
#X connect 45 0 44 0;
#X connect 46 0 44 0;
#X connect 47 0 49 0;
#X connect 48 0 41 0;
#X connect 48 0 4 0;
#X connect 49 0 25 0;
#X connect 50 0 33 0;
#X coords 0 -1 1 1 200 100 2 100 100;
#X restore 417 -239 pd playControl;
#X text 417 -254 PLAY CONTROL;
#X text 23 -255 ANIMATION CURVES;
#N canvas 908 121 450 300 imports 0;
#X obj 38 34 import flatgui;
#X restore 418 134 pd imports;
#N canvas 0 22 1440 852 experimental 0;
#X obj 74 113 envgen 203 123 1 0  ;
#X msg 52 56 bang;
#X obj 97 79 metro 2000;
#X obj 97 55 tgl 15 0 empty empty empty 0 -6 0 8 -24198 -1 -1 0 1;
#X obj 165 59 hsl 128 15 20 2000 0 0 empty empty empty -2 -6 0 8 -262144
-1 -1 0 1;
#X msg 318 104 \; pd dsp 1;
#N canvas 0 22 462 312 guts 0;
#X obj 151 62 osc~ 250;
#X obj 151 101 *~;
#X obj 241 101 *~;
#X obj 241 61 noise~;
#X obj 177 172 *~;
#X obj 133 150 line~;
#X obj 188 235 dac~;
#X obj 215 188 hsl 128 15 0.01 1 1 0 empty empty master_amplitude -2
-6 0 8 -262144 -1 -1 0 1;
#X obj 254 11 inlet;
#X obj 393 18 inlet;
#X obj 157 15 inlet;
#X obj 6 8 inlet;
#X obj 196 207 *~ 0.6;
#X connect 0 0 1 0;
#X connect 1 0 4 1;
#X connect 2 0 4 1;
#X connect 3 0 2 0;
#X connect 4 0 12 0;
#X connect 5 0 4 0;
#X connect 7 0 12 1;
#X connect 8 0 1 1;
#X connect 9 0 2 1;
#X connect 10 0 0 0;
#X connect 11 0 5 0;
#X connect 12 0 6 1;
#X connect 12 0 6 0;
#X restore 141 301 pd guts;
#X obj 156 274 tgl 15 0 empty empty empty 0 -6 0 8 -225271 -1 -1 0
1;
#X obj 179 274 tgl 15 1 empty empty empty 0 -6 0 8 -225271 -1 -1 1
1;
#X obj 143 250 hsl 128 15 100 1000 0 0 empty empty empty -2 -6 0 8
-262144 -1 -1 0 1;
#N canvas 95 30 517 478 all 0;
#X obj 43 276 envgen 203 123 1 0  ;
#X msg 83 169 motion 4 4;
#X msg 57 74 duration 5000;
#X msg 15 14 bang;
#X msg 81 127 release;
#X msg 42 43 0 50 1 50;
#X text 109 44 reset to default;
#X text 53 15 output data;
#X text 149 74 set the duration in milliseconds (ms);
#X obj 165 220 hsl 128 15 0 1 0 0 empty empty empty -2 -6 0 10 -262144
-1 -1 0 1;
#X msg 68 102 sustain 5000;
#X obj 41 414 print ENVGEN_TIMED_OUTPUT;
#X text 155 169 move selected point (values are x and y amounts in
pixels);
#X connect 0 0 11 0;
#X connect 1 0 0 0;
#X connect 2 0 0 0;
#X connect 3 0 0 0;
#X connect 4 0 0 0;
#X connect 5 0 0 0;
#X connect 9 0 0 0;
#X connect 10 0 0 0;
#X restore 118 334 pd all messages;
#X text 18 334 For more info:;
#N canvas 122 39 527 491 saving 0;
#X obj 73 134 envgen 203 123 1 0  ;
#X msg 71 26 bang;
#X msg 105 73 dump;
#X obj 277 278 list prepend set;
#X obj 277 299 list trim;
#X msg 195 95 0 50 1 50;
#X text 262 96 reset to default;
#X text 115 19 a bang outputs the data on the left inlet as separate
messages and times them properly to work with [line~];
#X text 126 60 outputs all of the data as a list on the right outlet
;
#X text 21 427 This message box will then save the data. Click to send
it back to [envgen];
#X obj 71 278 print ENVGEN_LEFT;
#X msg 12 333 0 26.601 0.422764 23.399 1 1.23153 0.219512 20.6897 0.609756
19.2118 0.878049 8.867 0;
#X connect 0 0 10 0;
#X connect 0 1 3 0;
#X connect 1 0 0 0;
#X connect 2 0 0 0;
#X connect 3 0 4 0;
#X connect 4 0 11 0;
#X connect 5 0 0 0;
#X connect 11 0 0 0;
#X restore 231 334 pd saving state;
#X connect 0 0 6 0;
#X connect 1 0 0 0;
#X connect 2 0 0 0;
#X connect 3 0 2 0;
#X connect 4 0 2 1;
#X connect 7 0 6 2;
#X connect 8 0 6 3;
#X connect 9 0 6 1;
#X restore 418 155 pd experimental;
#N canvas 343 204 1200 852 external-control 0;
#X obj 8 60 moses 100;
#X obj 8 85 bang;
#X obj 8 110 s play-one;
#X obj 8 36 ctlin 45;
#X obj 71 111 tgl 15 0 empty empty empty 17 7 0 10 -262144 -1 -1 0
1;
#X obj 88 60 moses 100;
#X obj 88 85 bang;
#X obj 159 111 tgl 15 0 empty empty empty 17 7 0 10 -262144 -1 -1 0
1;
#X obj 88 110 s play-stop;
#X obj 88 36 ctlin 46;
#X obj 178 60 moses 100;
#X obj 178 85 bang;
#X obj 257 111 tgl 15 0 empty empty empty 17 7 0 10 -262144 -1 -1 0
1;
#X obj 178 36 ctlin 49;
#X obj 178 110 s play-start;
#X obj 278 60 moses 100;
#X obj 278 85 bang;
#X obj 350 111 tgl 15 0 empty empty empty 17 7 0 10 -262144 -1 -1 0
1;
#X obj 278 110 s reset-all;
#X obj 278 36 ctlin 47;
#X obj 368 60 moses 100;
#X obj 368 85 bang;
#X obj 464 110 tgl 15 0 empty empty empty 17 7 0 10 -262144 -1 -1 0
1;
#X obj 368 36 ctlin 44;
#X obj 368 110 s record-button;
#X text 8 13 General MIDI messages;
#X text 9 138 All other MIDI code (such as handling individual channel
record button or the sliders to control the channels) are inside the
actuator abstraction itself.;
#X connect 0 1 1 0;
#X connect 1 0 2 0;
#X connect 1 0 4 0;
#X connect 3 0 0 0;
#X connect 5 1 6 0;
#X connect 6 0 7 0;
#X connect 6 0 8 0;
#X connect 9 0 5 0;
#X connect 10 1 11 0;
#X connect 11 0 12 0;
#X connect 11 0 14 0;
#X connect 13 0 10 0;
#X connect 15 1 16 0;
#X connect 16 0 17 0;
#X connect 16 0 18 0;
#X connect 19 0 15 0;
#X connect 20 1 21 0;
#X connect 21 0 22 0;
#X connect 21 0 24 0;
#X connect 23 0 20 0;
#X restore 418 178 pd external-control;
#X text 417 39 SAVE/LOAD ANIMATIONS (FOLDER);
#X text 417 116 EXTRA & IMPORTS;
#X obj 417 56 fileManager;
#X text 541 177 the MIDI support is tweaked for korg nanokontrol 1
;
#X obj 24 -234 keyframe-animation 1;
#X obj 24 40 keyframe-animation 2;
#N canvas 0 22 1440 852 example-waveforms 0;
#X msg 27 63 \; anim-sample cosinesum 256 0 0 0 0 0 0 1;
#N canvas 0 22 450 300 (subpatch) 0;
#X array anim-sample 259 float 1;
#A 0 0.989177 1 0.989177 0.95694 0.903989 0.83147 0.740952 0.634394
0.514103 0.382684 0.242981 0.0980184 -0.0490663 -0.195089 -0.336888
-0.471395 -0.595698 -0.707105 -0.803206 -0.88192 -0.941543 -0.980785
-0.998795 -0.995185 -0.970032 -0.923881 -0.85773 -0.773013 -0.671561
-0.555573 -0.427558 -0.290288 -0.146734 -3.98038e-06 0.146726 0.290281
0.427551 0.555566 0.671556 0.773007 0.857726 0.923878 0.97003 0.995184
0.998796 0.980786 0.941546 0.881924 0.803211 0.707111 0.595704 0.471402
0.336896 0.195097 0.0490743 -0.0980105 -0.242974 -0.382677 -0.514097
-0.634388 -0.740946 -0.831465 -0.903986 -0.956938 -0.989175 -1 -0.989178
-0.956943 -0.903993 -0.831474 -0.740957 -0.6344 -0.51411 -0.382692
-0.242989 -0.0980263 0.0490584 0.195081 0.336881 0.471388 0.595691
0.7071 0.803202 0.881916 0.941541 0.980783 0.998795 0.995186 0.970034
0.923884 0.857734 0.773018 0.671567 0.55558 0.427566 0.290296 0.146742
1.19412e-05 -0.146719 -0.290273 -0.427544 -0.55556 -0.67155 -0.773002
-0.857722 -0.923875 -0.970028 -0.995183 -0.998796 -0.980788 -0.941549
-0.881928 -0.803216 -0.707117 -0.595711 -0.471409 -0.336903 -0.195104
-0.0490822 0.0980025 0.242966 0.38267 0.51409 0.634382 0.740941 0.831461
0.903983 0.956936 0.989174 1 0.989179 0.956945 0.903996 0.831479 0.740962
0.634406 0.514117 0.382699 0.242997 0.0980342 -0.0490504 -0.195073
-0.336873 -0.471381 -0.595685 -0.707094 -0.803197 -0.881913 -0.941538
-0.980782 -0.998795 -0.995187 -0.970036 -0.923887 -0.857738 -0.773023
-0.671573 -0.555586 -0.427573 -0.290303 -0.14675 -1.99019e-05 0.146711
0.290265 0.427537 0.555553 0.671544 0.772997 0.857718 0.923872 0.970026
0.995183 0.998797 0.980789 0.941551 0.881931 0.803221 0.707122 0.595717
0.471416 0.336911 0.195112 0.0490902 -0.0979946 -0.242958 -0.382662
-0.514083 -0.634375 -0.740936 -0.831457 -0.903979 -0.956933 -0.989173
-1 -0.98918 -0.956947 -0.904 -0.831483 -0.740968 -0.634412 -0.514124
-0.382706 -0.243004 -0.0980421 0.0490425 0.195065 0.336866 0.471374
0.595679 0.707088 0.803192 0.881909 0.941535 0.98078 0.998794 0.995187
0.970038 0.92389 0.857742 0.773028 0.671579 0.555593 0.42758 0.290311
0.146758 2.78627e-05 -0.146703 -0.290258 -0.42753 -0.555547 -0.671538
-0.772992 -0.857714 -0.923868 -0.970024 -0.995182 -0.998797 -0.980791
-0.941554 -0.881935 -0.803225 -0.707128 -0.595723 -0.471423 -0.336918
-0.19512 -0.0490981 0.0979867 0.24295 0.382655 0.514076 0.634369 0.74093
0.831452 0.903976 0.956931 0.989172 1 0.989181;
#X coords 0 1 258 -1 200 100 1 0 0;
#X restore 25 122 graph;
#N canvas 0 22 450 300 (subpatch) 0;
#X array anim-envelope 103 float 1;
#A 0 -0.0199988 1.0673e-06 0.0500008 0.13 0.16 0.28 0.5 0.6 0.7 0.8
1.01111 1 0.988889 0.977778 0.966667 0.955556 0.944444 0.933333 0.922222
0.911111 0.9 0.888889 0.797778 0.737777 0.677777 0.647777 0.617777
0.557777 0.487777 0.467777 0.447776 0.417776 0.397776 0.387776 0.377776
0.367776 0.347776 0.327776 0.317776 0.297776 0.277776 0.267776 0.257776
0.257776 0.277776 0.297776 0.327776 0.357776 0.377776 0.397776 0.407776
0.427776 0.437776 0.387776 0.367776 0.347776 0.337776 0.287776 0.277776
0.277776 0.277776 0.267776 0.267776 0.267776 0.297776 0.317776 0.347776
0.367776 0.367776 0.357776 0.347776 0.337776 0.307776 0.287776 0.257776
0.227776 0.197776 0.167776 0.167776 0.167776 0.167776 0.167776 0.157776
0.157776 0.157776 0.157776 0.147776 0.147776 0.147776 0.137776 0.137776
0.111111 0.1 0.0888889 0.0777778 0.0666667 0.0555556 0.0444444 0.0333333
0.0222222 0.0111111 0 -0.0111111;
#X coords 0 1 102 0 200 100 1 0 0;
#X restore 25 252 graph;
#X restore 419 202 pd example-waveforms;
#N canvas 0 22 1440 852 example-sequencer 0;
#X obj 37 436 *~;
#X obj 37 464 hip~ 5;
#X obj 116 251 wrap~;
#X obj 116 275 *~ 100;
#X obj 116 299 +~ 1;
#X obj 36 252 phasor~;
#X obj 36 276 -~ 0.5;
#X obj 37 387 cos~;
#X obj 94 346 *~;
#X obj 94 370 *~ 128;
#X obj 94 394 +~ 129;
#X obj 37 411 +~ 1;
#X obj 36 204 *~ 9;
#X obj 36 180 phasor~ 0.6;
#X text 107 204 main loop: sawtooth of amplitude 9;
#X text 228 229 read frequency sequence;
#X text 172 251 9x original frequency sawtooth;
#X text 183 276 adjust for reading;
#X text 133 346 multiply envelope by audio-frequency sawtooth;
#X text 157 371 adjust amplitude and center for wavetable;
#X text 72 438 multiply by raised-cosine smoothing function;
#X floatatom 38 236 5 0 0 0 - - -;
#X obj 72 211 * 10;
#X obj 94 418 tabread4~ anim-sample;
#X obj 37 141 inlet;
#X text 121 138 inspired by example 29 of original PD;
#X obj 38 498 outlet~;
#X obj 116 323 tabread4~ anim-envelope;
#X connect 0 0 1 0;
#X connect 1 0 26 0;
#X connect 2 0 3 0;
#X connect 3 0 4 0;
#X connect 4 0 27 0;
#X connect 5 0 6 0;
#X connect 6 0 8 0;
#X connect 6 0 7 0;
#X connect 7 0 11 0;
#X connect 8 0 9 0;
#X connect 9 0 10 0;
#X connect 10 0 23 0;
#X connect 11 0 0 0;
#X connect 12 0 2 0;
#X connect 13 0 12 0;
#X connect 21 0 5 0;
#X connect 22 0 21 0;
#X connect 23 0 0 1;
#X connect 24 0 22 0;
#X connect 27 0 8 1;
#X restore 24 208 pd example-sequencer;
#X obj 24 235 output~;
#X obj 24 -18 output~;
#X obj 24 -43 osc~;
#X obj 24 -70 * 10;
#X text 57 -71 ajusting signal to our intended scale (% to Hz);
#X connect 12 0 19 0;
#X connect 13 0 15 0;
#X connect 15 0 16 0;
#X connect 15 0 16 1;
#X connect 18 0 17 0;
#X connect 19 0 18 0;
