#N canvas 208 22 1200 800 10;
#N canvas 0 22 450 278 (subpatch) 0;
#X array A\$1 200 float 1;
#A 0 0 41 41 41 41 41 41 41 41 41 41 63 64 71 72 72 72 72 72 72 72
72 72 72 72 72 72 72 72 72 71 70 70 68 41 41 41 41 41 41 41 41 41 41
41 0 0 0 0 0 0 0 0 0 0 0 0 0 0 0 0 0 0 0 0 0 0 0 0 0 0 0 0 0 0 0 0
0 0 0 0 0 0 0 0 41 41 41 41 41 41 41 41 41 41 44 44.5 45 45 45.5 46
47 47 47 47 46 42 42 42 42 41 41 41 41 41 41 0 0 0 0 0 0 0 0 0 0 0
0 0 0 0 0 0 0 0 0 0 0 0 0 0 0 45 47 50 51 44 42 41 40 40 40 47 48 49
49 49 49 49 41 41 41 41 44 44 44 44 44 44 44 33 33 0 0 0 0 0 0 0 0
0 0 0 41 41 41 0 0 0 0 0 0 0 41 41 41 41 41 41 41;
#X coords 0 100 199 0 200 100 2 0 0;
#X restore 71 54 graph;
#X text 1000 506 resize / size;
#X floatatom 33 263 0 0 199 1 index - -;
#X obj 34 236 r index;
#X obj 32 52 vsl 15 100 0 100 0 0 empty empty empty 0 -9 0 10 -262144
-1 -1 0 1;
#X floatatom 33 402 0 0 0 1 value - -;
#X obj 33 328 int;
#X obj 33 351 moses 0;
#X msg 33 374 0;
#X obj 33 427 limit 0 100;
#X obj 994 389 loadbang;
#X obj 1003 533 r size;
#X obj 290 109 tgl 15 0 empty empty print 17 7 0 10 -204800 -1 -1 0
1;
#X obj 49 625 spigot;
#X obj 71 155 hsl 198 10 0 200 0 0 empty empty empty -2 -8 0 10 -262144
-1 -1 18419 1;
#X text 29 32 const;
#X obj 271 56 vsl 15 98 0 100 0 0 empty empty empty 0 -9 0 10 -262144
-1 -1 0 1;
#X obj 108 427 spigot;
#X obj 362 202 r play-on;
#X floatatom 420 283 5 0 0 0 - - -;
#X obj 362 229 expr $f1 \; if ($f1 == 0 \, 1 \, 0) \; if ($f1 == 1
\, 0 \, 0);
#X obj 166 452 int;
#X obj 350 80 limit 0 100;
#X obj 804 30 bng 15 250 50 0 empty empty empty 17 7 0 10 -262144 -1
-1;
#X obj 804 60 float \$1;
#X msg 837 30 bang;
#X text 935 26 TODO use this to dynamically create array;
#X msg 1002 556 \; A1 resize \$1;
#X obj 490 230 loadbang;
#X msg 490 254 1;
#X floatatom 470 457 0 0 199 0 index - -;
#X obj 470 411 r index;
#X obj 411 414 spigot;
#X obj 523 380 tgl 15 0 empty empty empty 17 7 0 10 -262144 -1 -1 0
1;
#X obj 489 538 spigot;
#X obj 522 507 tgl 15 0 empty empty empty 17 7 0 10 -262144 -1 -1 1
1;
#X floatatom 411 446 5 0 0 0 - - -;
#X obj 411 386 int;
#X obj 470 479 bang;
#X obj 470 435 spigot;
#X obj 522 479 == 0;
#X symbolatom 209 37 10 0 0 0 - - -;
#X obj 868 59 symbol A\$1;
#X obj 210 2 r \$0-name;
#X obj 879 28 loadbang;
#X obj 937 60 symbol created actuator: A\$1;
#X obj 980 90 print;
#X obj 911 89 s \$0-name;
#X symbolatom 803 250 40 0 0 0 - - -;
#X obj 803 226 symbol;
#X obj 803 154 bng 15 250 50 0 empty empty empty 17 7 0 10 -262144
-1 -1;
#X obj 803 300 pack s s;
#X obj 856 275 r \$0-name;
#X obj 847 89 s \$0-id;
#X obj 980 156 r \$0-id;
#X text 873 333 actually reads the file and loads it into array;
#X text 873 118 load a file into existing array (array name is passed
as object argument);
#X obj 860 447 int;
#X msg 802 499 \; A\$1 const \$2;
#X obj 802 474 pack f f;
#X obj 32 188 s \$0-const;
#X text 800 367 scale array to constant value;
#X obj 802 388 r \$0-const;
#X obj 802 408 t b f;
#X obj 994 411 float \$1;
#X msg 994 434 \; A\$1 ylabel -8 0 100;
#X text 992 368 automatically add Y axis to array;
#X obj 82 600 r \$0-toggle-console-prints;
#X obj 350 158 s \$0-toggle-console-prints;
#X obj 932 204 print Selected Animation is;
#X obj 804 177 symbol;
#X obj 803 204 sprintf %s/A%d.data;
#X msg 803 325 \; \$2 read \$1;
#X obj 823 155 r global-animation-name;
#X obj 290 89 tgl 15 0 empty empty record 17 7 0 10 -258113 -1 -1 0
1;
#X obj 803 122 r load-all;
#X floatatom 804 89 5 0 0 0 - - -;
#X symbolatom 1233 251 40 0 0 0 - - -;
#X obj 1233 227 symbol;
#X obj 1233 155 bng 15 250 50 0 empty empty empty 17 7 0 10 -262144
-1 -1;
#X obj 1233 301 pack s s;
#X obj 1236 276 r \$0-name;
#X obj 1400 157 r \$0-id;
#X text 1313 119 load a file into existing array (array name is passed
as object argument);
#X obj 1372 205 print Selected Animation is;
#X obj 1234 178 symbol;
#X obj 1233 205 sprintf %s/A%d.data;
#X obj 1253 156 r global-animation-name;
#X obj 1233 124 r save-all;
#X msg 1233 326 \; \$2 write \$1;
#X text 1314 333 actually saves the file into array;
#X text 290 146 0;
#X text 289 54 100;
#X text 30 214 loop and read table;
#X obj 246 265 s \$0-manual-value;
#X obj 108 398 r \$0-manual-value;
#X obj 221 398 r \$0-let-manual-pass;
#X obj 420 310 s \$0-let-manual-pass;
#X obj 40 452 s \$0-send-to-slider;
#X obj 489 565 s \$0-pass-to-slider;
#X obj 350 106 s \$0-pass-to-slider;
#X obj 418 1 r \$0-pass-to-slider;
#X obj 411 357 r \$0-manual-value;
#X text 1088 529 <----- TODO !;
#X text 458 282 not(gate);
#X text 409 337 write to table (manual values in record);
#X obj 104 236 loadbang;
#X msg 104 283 set A\$1;
#X obj 104 306 s \$0-set-table-name;
#X obj 289 447 r \$0-set-table-name;
#X obj 411 480 tabwrite;
#X obj 33 306 tabread;
#X text 552 478 also a not(gate);
#X text 360 184 invert play and record modes;
#X obj 69 5 r index;
#X text 348 36 receive MIDI channel;
#X obj 104 261 f \$1;
#X obj 394 507 r \$0-send-to-slider;
#X obj 802 447 float \$1;
#X obj 1141 253 print SAVE;
#X obj 523 358 r \$0-enable-record;
#X msg 180 236 bang;
#X text 46 573 VALUE;
#X text 85 574 CHANNEL;
#X floatatom 528 75 5 0 0 0 - - -;
#X obj 529 134 limit 0 100;
#X obj 529 104 - 23;
#X text 524 21 MIDI support;
#X obj 528 40 ctlin \$1;
#X obj 350 56 r \$0-midi1;
#X obj 529 156 s \$0-midi1;
#X obj 49 489 pack f f;
#X obj 49 520 unpack f f;
#X obj 606 41 ctlin;
#X floatatom 606 93 5 0 0 0 - - -;
#X floatatom 649 94 5 0 0 0 - - -;
#X floatatom 716 95 5 0 0 0 - - -;
#X text 646 109 controller;
#X text 714 109 channel;
#X text 605 109 value;
#X obj 650 164 bang;
#X obj 713 190 tgl 15 0 empty empty empty 17 7 0 10 -262144 -1 -1 0
1;
#X obj 650 136 select;
#X text 488 586 MIDI setup;
#X obj 522 632 r \$0-id;
#X obj 490 660 +;
#X msg 490 605 21;
#X text 520 604 base control number for first slider on the MIDI interfaces
-2;
#X obj 489 690 s \$0-midi-control-slider;
#X obj 651 40 r \$0-midi-control-slider;
#X floatatom 698 137 5 0 0 0 - - -;
#X obj 522 660 bang;
#X obj 353 18 r \$0-record-display;
#X obj 350 133 s \$0-enable-record;
#X obj 607 237 s \$0-record-display;
#X obj 48 555 outlet;
#X obj 95 555 outlet;
#X obj 49 659 print \$2:\$1;
#X obj 735 236 loadbang;
#X msg 742 266 0;
#X connect 2 0 111 0;
#X connect 3 0 2 0;
#X connect 4 0 60 0;
#X connect 5 0 9 0;
#X connect 6 0 7 0;
#X connect 7 0 8 0;
#X connect 7 1 5 0;
#X connect 8 0 5 0;
#X connect 9 0 98 0;
#X connect 9 0 131 0;
#X connect 10 0 64 0;
#X connect 11 0 27 0;
#X connect 12 0 68 0;
#X connect 13 0 157 0;
#X connect 16 0 94 0;
#X connect 17 0 21 0;
#X connect 18 0 20 0;
#X connect 19 0 97 0;
#X connect 20 1 19 0;
#X connect 21 0 131 0;
#X connect 22 0 100 0;
#X connect 23 0 24 0;
#X connect 24 0 53 0;
#X connect 24 0 76 0;
#X connect 25 0 24 0;
#X connect 25 0 42 0;
#X connect 28 0 29 0;
#X connect 29 0 97 0;
#X connect 30 0 38 0;
#X connect 30 0 110 1;
#X connect 31 0 39 0;
#X connect 32 0 36 0;
#X connect 33 0 32 1;
#X connect 33 0 39 1;
#X connect 33 0 40 0;
#X connect 34 0 99 0;
#X connect 35 0 34 1;
#X connect 36 0 110 0;
#X connect 37 0 32 0;
#X connect 38 0 36 0;
#X connect 39 0 30 0;
#X connect 40 0 35 0;
#X connect 42 0 47 0;
#X connect 43 0 41 0;
#X connect 44 0 42 0;
#X connect 44 0 45 0;
#X connect 44 0 24 0;
#X connect 45 0 46 0;
#X connect 48 0 51 0;
#X connect 49 0 48 0;
#X connect 50 0 70 0;
#X connect 51 0 72 0;
#X connect 52 0 51 1;
#X connect 54 0 71 1;
#X connect 57 0 59 1;
#X connect 59 0 58 0;
#X connect 62 0 63 0;
#X connect 63 0 118 0;
#X connect 63 1 57 0;
#X connect 64 0 65 0;
#X connect 67 0 13 1;
#X connect 70 0 71 0;
#X connect 71 0 49 0;
#X connect 73 0 70 1;
#X connect 73 0 69 0;
#X connect 74 0 153 0;
#X connect 75 0 50 0;
#X connect 77 0 80 0;
#X connect 78 0 77 0;
#X connect 78 0 119 0;
#X connect 79 0 85 0;
#X connect 80 0 89 0;
#X connect 81 0 80 1;
#X connect 82 0 86 1;
#X connect 85 0 86 0;
#X connect 86 0 78 0;
#X connect 87 0 85 1;
#X connect 87 0 84 0;
#X connect 88 0 79 0;
#X connect 95 0 17 0;
#X connect 96 0 17 1;
#X connect 101 0 16 0;
#X connect 102 0 37 0;
#X connect 106 0 116 0;
#X connect 107 0 108 0;
#X connect 107 0 111 0;
#X connect 109 0 110 0;
#X connect 111 0 6 0;
#X connect 114 0 14 0;
#X connect 116 0 107 0;
#X connect 116 0 131 1;
#X connect 117 0 34 0;
#X connect 118 0 59 0;
#X connect 120 0 33 0;
#X connect 121 0 116 0;
#X connect 124 0 126 0;
#X connect 125 0 130 0;
#X connect 126 0 125 0;
#X connect 128 0 124 0;
#X connect 129 0 22 0;
#X connect 131 0 132 0;
#X connect 131 0 13 0;
#X connect 132 0 155 0;
#X connect 132 1 156 0;
#X connect 133 0 134 0;
#X connect 133 1 135 0;
#X connect 133 2 136 0;
#X connect 135 0 142 0;
#X connect 140 0 141 0;
#X connect 141 0 154 0;
#X connect 142 0 140 0;
#X connect 144 0 145 1;
#X connect 144 0 151 0;
#X connect 145 0 148 0;
#X connect 146 0 145 0;
#X connect 149 0 142 1;
#X connect 149 0 150 0;
#X connect 151 0 146 0;
#X connect 152 0 74 0;
#X connect 158 0 159 0;
#X connect 159 0 154 0;
#X coords 0 -1 1 1 320 150 1 25 25;
