#N canvas 48 38 1440 852 10;
#X declare -lib mrpeach;
#X obj 11 -94 import mrpeach;
#X obj 263 338 udpsend;
#X msg 179 230 disconnect;
#X obj 241 270 packOSC;
#X obj 108 201 tgl 15 0 empty empty 1=connected 20 8 0 8 -4034 -257985
-1 0 1;
#X obj 183 201 tgl 15 0 empty empty empty 17 7 0 10 -262144 -1 -1 0
1;
#X symbolatom 108 133 20 0 0 0 - - -;
#X obj 110 -94 loadbang;
#X floatatom 307 133 5 0 0 0 - - -;
#X obj 108 177 bng 15 250 50 0 empty empty empty 17 7 0 10 -4034 -1
-1;
#X text 127 177 connect;
#X obj 180 178 bng 15 250 50 0 empty empty empty 17 7 0 10 -258113
-1 -1;
#X text 199 178 disconnect;
#X symbolatom 108 154 20 0 0 0 - - -;
#X text 235 133 ip address;
#X text 344 130 port;
#X text 238 154 namespace (e.g. \, /data);
#X obj 109 -65 symbol \$1;
#X msg 108 -38 set \$1;
#X text 176 -65 ip address;
#X text 243 -43 port;
#X text 352 -62 namespace for action;
#X msg 277 -36 set \$1;
#X obj 245 -61 \$2;
#X obj 279 -61 symbol \$3;
#X obj 105 277 pack s f;
#X obj 325 41 inlet;
#X msg 264 299 connect \$1 \$2;
#X obj 104 302 t b b;
#X obj 325 70 symbol;
#X obj 375 69 list length;
#X floatatom 272 177 5 0 0 0 - - -;
#X obj 17 41 inlet;
#X obj 18 161 list trim;
#X obj 16 74 t l b;
#X obj 18 137 list prepend;
#X msg 15 109 send \$1;
#X text 311 177 last sent list lenght;
#X text 203 199 print outgoing;
#X obj 129 34 inlet;
#X text 88 55 comment;
#X text 13 17 1.value list;
#X text 323 22 4.OSC namespace;
#X obj 228 38 inlet;
#X text 226 19 3.PORT;
#X obj 185 82 delay 50;
#X obj 247 82 delay 50;
#X obj 248 60 t b f b;
#X obj 129 61 symbol;
#X obj 186 59 t b s b;
#X obj 106 334 spigot;
#X obj 105 364 print OSC_SENDER-DEBUG;
#X text 127 15 2 IP address;
#X connect 1 0 4 0;
#X connect 2 0 1 0;
#X connect 3 0 1 0;
#X connect 5 0 50 1;
#X connect 6 0 25 0;
#X connect 7 0 17 0;
#X connect 7 0 23 0;
#X connect 7 0 24 0;
#X connect 7 0 9 0;
#X connect 8 0 25 1;
#X connect 9 0 28 0;
#X connect 11 0 2 0;
#X connect 13 0 36 0;
#X connect 17 0 18 0;
#X connect 18 0 6 0;
#X connect 22 0 13 0;
#X connect 23 0 8 0;
#X connect 24 0 22 0;
#X connect 25 0 27 0;
#X connect 26 0 29 0;
#X connect 27 0 1 0;
#X connect 28 0 6 0;
#X connect 28 1 8 0;
#X connect 29 0 13 0;
#X connect 30 0 31 0;
#X connect 32 0 30 0;
#X connect 32 0 34 0;
#X connect 33 0 3 0;
#X connect 33 0 50 0;
#X connect 34 0 35 0;
#X connect 34 1 13 0;
#X connect 35 0 33 0;
#X connect 36 0 35 1;
#X connect 39 0 48 0;
#X connect 43 0 47 0;
#X connect 45 0 9 0;
#X connect 46 0 9 0;
#X connect 47 0 46 0;
#X connect 47 1 8 0;
#X connect 47 2 11 0;
#X connect 48 0 49 0;
#X connect 49 0 45 0;
#X connect 49 1 6 0;
#X connect 49 2 11 0;
#X connect 50 0 51 0;
#X coords 0 -1 1 1 350 120 1 100 100;
