#N canvas 442 109 559 470 10;
#X declare -lib mrpeach;
#X declare -lib mrpeach;
#X obj -32 452 cnv 15 552 21 empty \$0-pddp.cnv.footer empty 20 12
0 14 -228856 -66577 0;
#X obj -31 -2 cnv 15 552 40 empty \$0-pddp.cnv.header osc_sender 3
12 0 18 -204280 -1 0;
#X obj -31 251 cnv 3 550 3 empty \$0-pddp.cnv.inlets inlets 8 12 0
13 -228856 -1 0;
#N canvas 50 246 494 363 META 0;
#X text 12 148 RELEASE_DATE 2015;
#X text 12 108 AUTHOR Pedro Lopes;
#X text 12 88 LIBRARY plopesresearch;
#X text 12 25 LICENSE GPL;
#X text 12 6 KEYWORDS OSC send manage connection data open sound control
;
#X text 12 45 DESCRIPTION send one data value via OSC;
#X text 12 65 INLET_0 float;
#X text 12 128 WEBSITE http://plopes.org;
#X restore 468 454 pd META;
#X obj -31 352 cnv 3 550 3 empty \$0-pddp.cnv.argument arguments 8
12 0 13 -228856 -1 0;
#N canvas 74 346 282 120 Related_objects 0;
#X obj 1 1 cnv 15 425 20 empty \$0-pddp.cnv.subheading empty 3 12 0
14 -204280 -1 0;
#X text 8 2 [osc_sender] Related Objects;
#X text 21 38 comment;
#X obj 37 34 import mrpeach;
#X obj 9 67 sendOSC-help;
#X text 4 32 from;
#X restore 70 454 pd Related_objects;
#X obj -28 454 pddp/pddplink all_about_help_patches.pd -text Usage
Guide;
#X text 86 368 1) symbol;
#X text 147 369 - (required) IP address to communicate to (e.g. \,
127.0.0.1);
#X text 86 391 2) float;
#X text 147 392 - (required) Port to communicate to (e.g. \, 12000)
;
#X obj 65 412 cnv 17 3 17 empty \$0-pddp.cnv.let.1 3 5 9 0 16 -228856
-162280 0;
#X obj 64 389 cnv 17 3 17 empty \$0-pddp.cnv.let.1 2 5 9 0 16 -228856
-162280 0;
#X text 86 412 3) symbol;
#X text 147 413 - (required) OSC namespace to send as (e.g. \, /data)
;
#X text -20 21 sends one value through OSC connection;
#X obj 63 368 cnv 17 3 17 empty \$0-pddp.cnv.let.0 1 5 9 0 16 -228856
-162280 0;
#X obj 45 280 cnv 17 3 17 empty \$0-pddp.cnv.let.1 2 5 9 0 16 -228856
-162280 0;
#X obj 45 259 cnv 17 3 17 empty \$0-pddp.cnv.let.0 1 5 9 0 16 -228856
-162280 0;
#X floatatom 244 93 5 0 0 0 - - -;
#X msg 105 94 127.0.0.1;
#X msg -27 94 1 2 99;
#X text -16 50 The [osc_sender] object creates an OSC connection and
allows you to send a list of values via that connection.;
#X text 284 92 port;
#X text 417 91 OSC namespace;
#X text 175 93 IP address;
#X text 15 94 values to send;
#X obj 45 301 cnv 17 3 17 empty \$0-pddp.cnv.let.1 3 5 9 0 16 -228856
-162280 0;
#X obj 45 321 cnv 17 3 17 empty \$0-pddp.cnv.let.1 4 5 9 0 16 -228856
-162280 0;
#X text 139 323 - the OSC namespace to send data as (e.g. \, /data)
;
#X text 139 282 - the IP address (e.g. \, 127.0.0.1 for localhost)
;
#X text 70 281 message;
#X text 70 302 float;
#X text 68 259 message/list;
#X text 138 260 - the values to be sent (as a list);
#X text 70 322 message;
#X text 139 303 - the PORT (e.g. \, 12000);
#X msg 375 92 /data;
#X obj -18 123 osc_sender 127.0.0.1 12001 /data;
#X connect 19 0 38 2;
#X connect 20 0 38 1;
#X connect 21 0 38 0;
#X connect 37 0 38 3;
